<mxfile host="65bd71144e" pages="10">
    <diagram name="Page-1" id="zz2CMkQjYr381hOcUtvI">
        <mxGraphModel dx="1492" dy="278" grid="1" gridSize="10" guides="1" tooltips="1" connect="1" arrows="1" fold="1" page="1" pageScale="1" pageWidth="850" pageHeight="1100" math="0" shadow="0">
            <root>
                <mxCell id="0"/>
                <mxCell id="1" parent="0"/>
                <mxCell id="1gcYLamHcx30_rit0yuW-3" value="" style="edgeStyle=orthogonalEdgeStyle;rounded=0;orthogonalLoop=1;jettySize=auto;html=1;" parent="1" source="1gcYLamHcx30_rit0yuW-1" target="1gcYLamHcx30_rit0yuW-2" edge="1">
                    <mxGeometry relative="1" as="geometry"/>
                </mxCell>
                <mxCell id="1gcYLamHcx30_rit0yuW-1" value="JS : interpreter based ==&amp;gt; browsers" style="rounded=0;whiteSpace=wrap;html=1;fontSize=18;" parent="1" vertex="1">
                    <mxGeometry x="110" y="70" width="420" height="140" as="geometry"/>
                </mxCell>
                <mxCell id="1gcYLamHcx30_rit0yuW-18" value="" style="edgeStyle=orthogonalEdgeStyle;rounded=0;orthogonalLoop=1;jettySize=auto;html=1;" parent="1" source="1gcYLamHcx30_rit0yuW-2" target="1gcYLamHcx30_rit0yuW-17" edge="1">
                    <mxGeometry relative="1" as="geometry"/>
                </mxCell>
                <mxCell id="1gcYLamHcx30_rit0yuW-2" value="DOM : Document object modeling&amp;nbsp;" style="whiteSpace=wrap;html=1;fontSize=18;rounded=0;" parent="1" vertex="1">
                    <mxGeometry x="210" y="330" width="220" height="60" as="geometry"/>
                </mxCell>
                <mxCell id="1gcYLamHcx30_rit0yuW-6" value="" style="edgeStyle=orthogonalEdgeStyle;rounded=0;orthogonalLoop=1;jettySize=auto;html=1;" parent="1" source="1gcYLamHcx30_rit0yuW-4" target="1gcYLamHcx30_rit0yuW-5" edge="1">
                    <mxGeometry relative="1" as="geometry"/>
                </mxCell>
                <mxCell id="1gcYLamHcx30_rit0yuW-8" value="" style="edgeStyle=orthogonalEdgeStyle;rounded=0;orthogonalLoop=1;jettySize=auto;html=1;" parent="1" source="1gcYLamHcx30_rit0yuW-4" target="1gcYLamHcx30_rit0yuW-7" edge="1">
                    <mxGeometry relative="1" as="geometry"/>
                </mxCell>
                <mxCell id="1gcYLamHcx30_rit0yuW-4" value="HTML" style="ellipse;whiteSpace=wrap;html=1;aspect=fixed;" parent="1" vertex="1">
                    <mxGeometry x="590" y="330" width="80" height="80" as="geometry"/>
                </mxCell>
                <mxCell id="1gcYLamHcx30_rit0yuW-5" value="HEAD" style="ellipse;whiteSpace=wrap;html=1;aspect=fixed;" parent="1" vertex="1">
                    <mxGeometry x="440" y="460" width="80" height="80" as="geometry"/>
                </mxCell>
                <mxCell id="1gcYLamHcx30_rit0yuW-12" value="" style="edgeStyle=orthogonalEdgeStyle;rounded=0;orthogonalLoop=1;jettySize=auto;html=1;" parent="1" source="1gcYLamHcx30_rit0yuW-7" target="1gcYLamHcx30_rit0yuW-11" edge="1">
                    <mxGeometry relative="1" as="geometry"/>
                </mxCell>
                <mxCell id="1gcYLamHcx30_rit0yuW-14" value="" style="edgeStyle=orthogonalEdgeStyle;rounded=0;orthogonalLoop=1;jettySize=auto;html=1;" parent="1" source="1gcYLamHcx30_rit0yuW-7" target="1gcYLamHcx30_rit0yuW-13" edge="1">
                    <mxGeometry relative="1" as="geometry"/>
                </mxCell>
                <mxCell id="1gcYLamHcx30_rit0yuW-16" value="" style="edgeStyle=orthogonalEdgeStyle;rounded=0;orthogonalLoop=1;jettySize=auto;html=1;" parent="1" source="1gcYLamHcx30_rit0yuW-7" target="1gcYLamHcx30_rit0yuW-15" edge="1">
                    <mxGeometry relative="1" as="geometry"/>
                </mxCell>
                <mxCell id="1gcYLamHcx30_rit0yuW-7" value="BODY" style="ellipse;whiteSpace=wrap;html=1;aspect=fixed;" parent="1" vertex="1">
                    <mxGeometry x="740" y="460" width="80" height="80" as="geometry"/>
                </mxCell>
                <mxCell id="1gcYLamHcx30_rit0yuW-11" value="tag" style="ellipse;whiteSpace=wrap;html=1;aspect=fixed;" parent="1" vertex="1">
                    <mxGeometry x="500" y="620" width="80" height="80" as="geometry"/>
                </mxCell>
                <mxCell id="1gcYLamHcx30_rit0yuW-13" value="" style="whiteSpace=wrap;html=1;" parent="1" vertex="1">
                    <mxGeometry x="720" y="640" width="120" height="60" as="geometry"/>
                </mxCell>
                <mxCell id="1gcYLamHcx30_rit0yuW-15" value="tag" style="ellipse;whiteSpace=wrap;html=1;aspect=fixed;" parent="1" vertex="1">
                    <mxGeometry x="1030" y="630" width="80" height="80" as="geometry"/>
                </mxCell>
                <mxCell id="1gcYLamHcx30_rit0yuW-17" value="we do have a predefined object called document : which is refering the DOM tree.&lt;div&gt;&lt;br&gt;&lt;/div&gt;" style="whiteSpace=wrap;html=1;fontSize=18;rounded=0;fillColor=#dae8fc;strokeColor=#6c8ebf;" parent="1" vertex="1">
                    <mxGeometry x="260" y="470" width="170" height="180" as="geometry"/>
                </mxCell>
                <mxCell id="1gcYLamHcx30_rit0yuW-21" value="" style="edgeStyle=orthogonalEdgeStyle;rounded=0;orthogonalLoop=1;jettySize=auto;html=1;" parent="1" source="1gcYLamHcx30_rit0yuW-19" target="1gcYLamHcx30_rit0yuW-20" edge="1">
                    <mxGeometry relative="1" as="geometry"/>
                </mxCell>
                <mxCell id="1gcYLamHcx30_rit0yuW-19" value="VDOM virtual DOM" style="ellipse;whiteSpace=wrap;html=1;aspect=fixed;fillColor=#f8cecc;strokeColor=#b85450;fontSize=16;" parent="1" vertex="1">
                    <mxGeometry x="30" y="310" width="80" height="80" as="geometry"/>
                </mxCell>
                <mxCell id="1gcYLamHcx30_rit0yuW-20" value="it is a replica of ur actual dom." style="whiteSpace=wrap;html=1;fontSize=16;fillColor=#f8cecc;strokeColor=#b85450;" parent="1" vertex="1">
                    <mxGeometry x="10" y="480" width="120" height="60" as="geometry"/>
                </mxCell>
                <mxCell id="1gcYLamHcx30_rit0yuW-24" value="" style="edgeStyle=orthogonalEdgeStyle;rounded=0;orthogonalLoop=1;jettySize=auto;html=1;" parent="1" source="1gcYLamHcx30_rit0yuW-22" target="1gcYLamHcx30_rit0yuW-23" edge="1">
                    <mxGeometry relative="1" as="geometry"/>
                </mxCell>
                <mxCell id="1gcYLamHcx30_rit0yuW-22" value="when u will start working with react&amp;nbsp; ?&amp;nbsp;&lt;div&gt;react is completely based on VDOM .&amp;nbsp;&lt;/div&gt;&lt;div&gt;&lt;br&gt;&lt;/div&gt;" style="rounded=1;whiteSpace=wrap;html=1;fontSize=20;" parent="1" vertex="1">
                    <mxGeometry x="60" y="740" width="480" height="160" as="geometry"/>
                </mxCell>
                <mxCell id="1gcYLamHcx30_rit0yuW-23" value="react is an open source lib. not a framework." style="whiteSpace=wrap;html=1;fontSize=20;rounded=1;" parent="1" vertex="1">
                    <mxGeometry x="175" y="1000" width="250" height="60" as="geometry"/>
                </mxCell>
                <mxCell id="FelpXmiOVIayq6tVp_aa-2" value="" style="edgeStyle=none;html=1;" parent="1" source="1gcYLamHcx30_rit0yuW-25" edge="1">
                    <mxGeometry relative="1" as="geometry">
                        <mxPoint x="425" y="1585" as="targetPoint"/>
                    </mxGeometry>
                </mxCell>
                <mxCell id="ZbLvdTxmEoBdASdLe-_b-2" value="" style="edgeStyle=none;html=1;" parent="1" source="1gcYLamHcx30_rit0yuW-25" target="ZbLvdTxmEoBdASdLe-_b-1" edge="1">
                    <mxGeometry relative="1" as="geometry"/>
                </mxCell>
                <mxCell id="1gcYLamHcx30_rit0yuW-25" value="Component: small resuable piece of UI .&amp;nbsp; in react ===&amp;gt; we will use the js based functions.&amp;nbsp;&lt;div&gt;&lt;br&gt;&lt;/div&gt;&lt;div&gt;There are 2 types of componennts :&amp;nbsp;&lt;/div&gt;&lt;div&gt;1. smart component : is a component which is capable of taking the decision / performing the task.&lt;/div&gt;&lt;div&gt;2. dumb component.: which is responsible for accepting / returning / sharing the data to UI.&lt;/div&gt;&lt;div&gt;&lt;br&gt;&lt;/div&gt;" style="rounded=1;whiteSpace=wrap;html=1;fontSize=26;" parent="1" vertex="1">
                    <mxGeometry x="100" y="1130" width="650" height="270" as="geometry"/>
                </mxCell>
                <mxCell id="3G3aDUGVvVMLmLG8TW9a-1" value="entire structure is refred by Document." style="rounded=1;whiteSpace=wrap;html=1;" parent="1" vertex="1">
                    <mxGeometry x="700" y="750" width="120" height="60" as="geometry"/>
                </mxCell>
                <mxCell id="3G3aDUGVvVMLmLG8TW9a-4" value="" style="edgeStyle=none;html=1;" parent="1" source="3G3aDUGVvVMLmLG8TW9a-2" target="3G3aDUGVvVMLmLG8TW9a-3" edge="1">
                    <mxGeometry relative="1" as="geometry"/>
                </mxCell>
                <mxCell id="3G3aDUGVvVMLmLG8TW9a-2" value="What is React ?&amp;nbsp;&lt;div&gt;its a lib used to develop the web application.&lt;/div&gt;" style="rounded=1;whiteSpace=wrap;html=1;fontSize=19;" parent="1" vertex="1">
                    <mxGeometry x="285" y="1540" width="315" height="60" as="geometry"/>
                </mxCell>
                <mxCell id="3G3aDUGVvVMLmLG8TW9a-3" value="lib vs Framework" style="whiteSpace=wrap;html=1;fontSize=19;rounded=1;" parent="1" vertex="1">
                    <mxGeometry x="358.75" y="1670" width="167.5" height="60" as="geometry"/>
                </mxCell>
                <mxCell id="3G3aDUGVvVMLmLG8TW9a-7" value="" style="edgeStyle=none;html=1;" parent="1" source="3G3aDUGVvVMLmLG8TW9a-5" target="3G3aDUGVvVMLmLG8TW9a-6" edge="1">
                    <mxGeometry relative="1" as="geometry"/>
                </mxCell>
                <mxCell id="3G3aDUGVvVMLmLG8TW9a-5" value="manipulations to perform some operations on the screen @ the runtime&amp;nbsp;" style="rounded=1;whiteSpace=wrap;html=1;" parent="1" vertex="1">
                    <mxGeometry x="160" y="1830" width="120" height="70" as="geometry"/>
                </mxCell>
                <mxCell id="3G3aDUGVvVMLmLG8TW9a-9" value="" style="edgeStyle=none;html=1;" parent="1" source="3G3aDUGVvVMLmLG8TW9a-6" target="3G3aDUGVvVMLmLG8TW9a-8" edge="1">
                    <mxGeometry relative="1" as="geometry"/>
                </mxCell>
                <mxCell id="3G3aDUGVvVMLmLG8TW9a-6" value="we have to manipulate the DOM" style="whiteSpace=wrap;html=1;rounded=1;" parent="1" vertex="1">
                    <mxGeometry x="360" y="1830" width="120" height="60" as="geometry"/>
                </mxCell>
                <mxCell id="3G3aDUGVvVMLmLG8TW9a-8" value="it will read the contents from top to bottom." style="whiteSpace=wrap;html=1;rounded=1;" parent="1" vertex="1">
                    <mxGeometry x="360" y="1970" width="120" height="60" as="geometry"/>
                </mxCell>
                <mxCell id="3G3aDUGVvVMLmLG8TW9a-10" value="they have created the replica of actual DOM tree and with thier own algo they will find the shortest path to do the manipulation on the actual DOM tree and will update the VDOM accordingly." style="text;html=1;align=center;verticalAlign=middle;whiteSpace=wrap;rounded=0;" parent="1" vertex="1">
                    <mxGeometry x="140" y="1940" width="170" height="150" as="geometry"/>
                </mxCell>
                <mxCell id="ZbLvdTxmEoBdASdLe-_b-4" value="" style="edgeStyle=none;html=1;" parent="1" source="ZbLvdTxmEoBdASdLe-_b-1" target="ZbLvdTxmEoBdASdLe-_b-3" edge="1">
                    <mxGeometry relative="1" as="geometry"/>
                </mxCell>
                <mxCell id="ZbLvdTxmEoBdASdLe-_b-1" value="react we will use functional based components." style="whiteSpace=wrap;html=1;fontSize=26;rounded=1;" parent="1" vertex="1">
                    <mxGeometry x="-380" y="1202.5" width="175" height="125" as="geometry"/>
                </mxCell>
                <mxCell id="ZbLvdTxmEoBdASdLe-_b-3" value="here we will use functions as a basic structure to delcare the component." style="whiteSpace=wrap;html=1;fontSize=26;rounded=1;" parent="1" vertex="1">
                    <mxGeometry x="-780" y="1197.5" width="302.5" height="135" as="geometry"/>
                </mxCell>
            </root>
        </mxGraphModel>
    </diagram>
    <diagram id="rr6dWftHYUgawh2LXN-k" name="Page-2">
        <mxGraphModel dx="1493" dy="292" grid="1" gridSize="10" guides="1" tooltips="1" connect="1" arrows="1" fold="1" page="1" pageScale="1" pageWidth="850" pageHeight="1100" math="0" shadow="0">
            <root>
                <mxCell id="0"/>
                <mxCell id="1" parent="0"/>
                <mxCell id="zTZlSgEMjeJYer07fA5H-1" value="" style="rounded=1;whiteSpace=wrap;html=1;" parent="1" vertex="1">
                    <mxGeometry x="160" y="50" width="640" height="800" as="geometry"/>
                </mxCell>
                <mxCell id="zTZlSgEMjeJYer07fA5H-2" value="react project" style="sketch=0;pointerEvents=1;shadow=0;dashed=0;html=1;strokeColor=none;fillColor=#005F4B;labelPosition=center;verticalLabelPosition=bottom;verticalAlign=top;align=center;outlineConnect=0;shape=mxgraph.veeam2.folder;fontSize=19;" parent="1" vertex="1">
                    <mxGeometry x="270" y="100" width="60" height="30" as="geometry"/>
                </mxCell>
                <mxCell id="zTZlSgEMjeJYer07fA5H-3" value="module :&amp;nbsp; don&#39;t have module concept . we will consider module is nothing but a logical separation of our project for our convinience ." style="text;html=1;align=center;verticalAlign=middle;whiteSpace=wrap;rounded=0;fontSize=23;fillColor=#f8cecc;strokeColor=#b85450;fontStyle=1" parent="1" vertex="1">
                    <mxGeometry x="-180" y="120" width="300" height="180" as="geometry"/>
                </mxCell>
                <mxCell id="zTZlSgEMjeJYer07fA5H-17" value="" style="edgeStyle=orthogonalEdgeStyle;rounded=0;orthogonalLoop=1;jettySize=auto;html=1;" parent="1" source="zTZlSgEMjeJYer07fA5H-4" target="zTZlSgEMjeJYer07fA5H-5" edge="1">
                    <mxGeometry relative="1" as="geometry"/>
                </mxCell>
                <mxCell id="zTZlSgEMjeJYer07fA5H-4" value="core&lt;div&gt;&lt;br&gt;&lt;/div&gt;" style="sketch=0;pointerEvents=1;shadow=0;dashed=0;html=1;strokeColor=none;fillColor=#005F4B;labelPosition=center;verticalLabelPosition=bottom;verticalAlign=top;align=center;outlineConnect=0;shape=mxgraph.veeam2.folder;fontSize=19;" parent="1" vertex="1">
                    <mxGeometry x="310" y="180" width="40" height="30" as="geometry"/>
                </mxCell>
                <mxCell id="zTZlSgEMjeJYer07fA5H-5" value="&lt;div&gt;auth&lt;/div&gt;" style="sketch=0;pointerEvents=1;shadow=0;dashed=0;html=1;strokeColor=none;fillColor=#005F4B;labelPosition=center;verticalLabelPosition=bottom;verticalAlign=top;align=center;outlineConnect=0;shape=mxgraph.veeam2.folder;fontSize=19;" parent="1" vertex="1">
                    <mxGeometry x="310" y="270" width="40" height="30" as="geometry"/>
                </mxCell>
                <mxCell id="zTZlSgEMjeJYer07fA5H-6" value="&lt;div&gt;dashboard&lt;/div&gt;" style="sketch=0;pointerEvents=1;shadow=0;dashed=0;html=1;strokeColor=none;fillColor=#005F4B;labelPosition=center;verticalLabelPosition=bottom;verticalAlign=top;align=center;outlineConnect=0;shape=mxgraph.veeam2.folder;fontSize=19;" parent="1" vertex="1">
                    <mxGeometry x="310" y="370" width="40" height="30" as="geometry"/>
                </mxCell>
                <mxCell id="zTZlSgEMjeJYer07fA5H-7" value="&lt;div&gt;profile&lt;/div&gt;" style="sketch=0;pointerEvents=1;shadow=0;dashed=0;html=1;strokeColor=none;fillColor=#005F4B;labelPosition=center;verticalLabelPosition=bottom;verticalAlign=top;align=center;outlineConnect=0;shape=mxgraph.veeam2.folder;fontSize=19;" parent="1" vertex="1">
                    <mxGeometry x="310" y="470" width="40" height="30" as="geometry"/>
                </mxCell>
                <mxCell id="zTZlSgEMjeJYer07fA5H-8" value="&lt;div&gt;posts&lt;/div&gt;&lt;div&gt;&lt;br&gt;&lt;/div&gt;" style="sketch=0;pointerEvents=1;shadow=0;dashed=0;html=1;strokeColor=none;fillColor=#005F4B;labelPosition=center;verticalLabelPosition=bottom;verticalAlign=top;align=center;outlineConnect=0;shape=mxgraph.veeam2.folder;fontSize=19;" parent="1" vertex="1">
                    <mxGeometry x="310" y="570" width="40" height="30" as="geometry"/>
                </mxCell>
                <mxCell id="zTZlSgEMjeJYer07fA5H-9" value="comments" style="sketch=0;pointerEvents=1;shadow=0;dashed=0;html=1;strokeColor=none;fillColor=#005F4B;labelPosition=center;verticalLabelPosition=bottom;verticalAlign=top;align=center;outlineConnect=0;shape=mxgraph.veeam2.folder;fontSize=19;" parent="1" vertex="1">
                    <mxGeometry x="310" y="660" width="40" height="30" as="geometry"/>
                </mxCell>
                <mxCell id="zTZlSgEMjeJYer07fA5H-10" value="utils" style="sketch=0;pointerEvents=1;shadow=0;dashed=0;html=1;strokeColor=none;fillColor=#005F4B;labelPosition=center;verticalLabelPosition=bottom;verticalAlign=top;align=center;outlineConnect=0;shape=mxgraph.veeam2.folder;fontSize=19;" parent="1" vertex="1">
                    <mxGeometry x="310" y="760" width="40" height="30" as="geometry"/>
                </mxCell>
                <mxCell id="zTZlSgEMjeJYer07fA5H-11" value="core is going to hold components ,features , which are required commonly to our application." style="text;html=1;align=center;verticalAlign=middle;whiteSpace=wrap;rounded=0;fontSize=20;fillColor=#f5f5f5;fontColor=#333333;strokeColor=#666666;" parent="1" vertex="1">
                    <mxGeometry x="370" y="170" width="375" height="70" as="geometry"/>
                </mxCell>
                <mxCell id="zTZlSgEMjeJYer07fA5H-12" value="auth : auth related components , services(rest calls ) , redux stuff for auth, common functionality for auth like utils" style="text;html=1;align=center;verticalAlign=middle;whiteSpace=wrap;rounded=0;fontSize=20;fillColor=#dae8fc;strokeColor=#6c8ebf;" parent="1" vertex="1">
                    <mxGeometry x="370" y="270" width="375" height="70" as="geometry"/>
                </mxCell>
                <mxCell id="zTZlSgEMjeJYer07fA5H-13" value="dashboard : components, rest calls,&amp;nbsp;" style="text;html=1;align=center;verticalAlign=middle;whiteSpace=wrap;rounded=0;fontSize=20;fillColor=#ffe6cc;strokeColor=#d79b00;" parent="1" vertex="1">
                    <mxGeometry x="390" y="370" width="375" height="70" as="geometry"/>
                </mxCell>
                <mxCell id="zTZlSgEMjeJYer07fA5H-14" value="profile related&amp;nbsp; ;components , redux ,&amp;nbsp;" style="text;html=1;align=center;verticalAlign=middle;whiteSpace=wrap;rounded=0;fontSize=20;fillColor=#fff2cc;strokeColor=#d6b656;" parent="1" vertex="1">
                    <mxGeometry x="390" y="470" width="375" height="70" as="geometry"/>
                </mxCell>
                <mxCell id="zTZlSgEMjeJYer07fA5H-15" value="" style="rounded=1;whiteSpace=wrap;html=1;" parent="1" vertex="1">
                    <mxGeometry x="-410" y="330" width="530" height="740" as="geometry"/>
                </mxCell>
                <mxCell id="zTZlSgEMjeJYer07fA5H-18" value="&lt;div&gt;auth&lt;/div&gt;" style="sketch=0;pointerEvents=1;shadow=0;dashed=0;html=1;strokeColor=none;fillColor=#005F4B;labelPosition=center;verticalLabelPosition=bottom;verticalAlign=top;align=center;outlineConnect=0;shape=mxgraph.veeam2.folder;fontSize=19;" parent="1" vertex="1">
                    <mxGeometry x="-340" y="370" width="40" height="30" as="geometry"/>
                </mxCell>
                <mxCell id="zTZlSgEMjeJYer07fA5H-33" style="edgeStyle=orthogonalEdgeStyle;rounded=0;orthogonalLoop=1;jettySize=auto;html=1;" parent="1" source="zTZlSgEMjeJYer07fA5H-19" target="zTZlSgEMjeJYer07fA5H-23" edge="1">
                    <mxGeometry relative="1" as="geometry"/>
                </mxCell>
                <mxCell id="zTZlSgEMjeJYer07fA5H-19" value="types" style="sketch=0;pointerEvents=1;shadow=0;dashed=0;html=1;strokeColor=none;fillColor=#005F4B;labelPosition=center;verticalLabelPosition=bottom;verticalAlign=top;align=center;outlineConnect=0;shape=mxgraph.veeam2.folder;fontSize=19;" parent="1" vertex="1">
                    <mxGeometry x="-165" y="700" width="40" height="30" as="geometry"/>
                </mxCell>
                <mxCell id="zTZlSgEMjeJYer07fA5H-34" style="edgeStyle=orthogonalEdgeStyle;rounded=0;orthogonalLoop=1;jettySize=auto;html=1;" parent="1" source="zTZlSgEMjeJYer07fA5H-20" target="zTZlSgEMjeJYer07fA5H-24" edge="1">
                    <mxGeometry relative="1" as="geometry"/>
                </mxCell>
                <mxCell id="zTZlSgEMjeJYer07fA5H-20" value="&lt;div&gt;purpose&lt;/div&gt;" style="sketch=0;pointerEvents=1;shadow=0;dashed=0;html=1;strokeColor=none;fillColor=#005F4B;labelPosition=center;verticalLabelPosition=bottom;verticalAlign=top;align=center;outlineConnect=0;shape=mxgraph.veeam2.folder;fontSize=19;" parent="1" vertex="1">
                    <mxGeometry x="-165" y="440" width="40" height="30" as="geometry"/>
                </mxCell>
                <mxCell id="zTZlSgEMjeJYer07fA5H-21" value="&lt;div&gt;utils&lt;/div&gt;" style="sketch=0;pointerEvents=1;shadow=0;dashed=0;html=1;strokeColor=none;fillColor=#005F4B;labelPosition=center;verticalLabelPosition=bottom;verticalAlign=top;align=center;outlineConnect=0;shape=mxgraph.veeam2.folder;fontSize=19;" parent="1" vertex="1">
                    <mxGeometry x="-260" y="920" width="40" height="30" as="geometry"/>
                </mxCell>
                <mxCell id="zTZlSgEMjeJYer07fA5H-53" value="" style="edgeStyle=orthogonalEdgeStyle;rounded=0;orthogonalLoop=1;jettySize=auto;html=1;" parent="1" source="zTZlSgEMjeJYer07fA5H-22" target="zTZlSgEMjeJYer07fA5H-21" edge="1">
                    <mxGeometry relative="1" as="geometry"/>
                </mxCell>
                <mxCell id="zTZlSgEMjeJYer07fA5H-22" value="&lt;div&gt;router&lt;/div&gt;" style="sketch=0;pointerEvents=1;shadow=0;dashed=0;html=1;strokeColor=none;fillColor=#005F4B;labelPosition=center;verticalLabelPosition=bottom;verticalAlign=top;align=center;outlineConnect=0;shape=mxgraph.veeam2.folder;fontSize=19;" parent="1" vertex="1">
                    <mxGeometry x="-260" y="810" width="40" height="30" as="geometry"/>
                </mxCell>
                <mxCell id="zTZlSgEMjeJYer07fA5H-23" value="&lt;div&gt;redux&lt;/div&gt;" style="sketch=0;pointerEvents=1;shadow=0;dashed=0;html=1;strokeColor=none;fillColor=#005F4B;labelPosition=center;verticalLabelPosition=bottom;verticalAlign=top;align=center;outlineConnect=0;shape=mxgraph.veeam2.folder;fontSize=19;" parent="1" vertex="1">
                    <mxGeometry x="-260" y="500" width="40" height="30" as="geometry"/>
                </mxCell>
                <mxCell id="zTZlSgEMjeJYer07fA5H-24" value="&lt;div&gt;components&lt;/div&gt;" style="sketch=0;pointerEvents=1;shadow=0;dashed=0;html=1;strokeColor=none;fillColor=#005F4B;labelPosition=center;verticalLabelPosition=bottom;verticalAlign=top;align=center;outlineConnect=0;shape=mxgraph.veeam2.folder;fontSize=19;" parent="1" vertex="1">
                    <mxGeometry x="-260" y="410" width="40" height="30" as="geometry"/>
                </mxCell>
                <mxCell id="zTZlSgEMjeJYer07fA5H-26" value="" style="verticalLabelPosition=bottom;html=1;verticalAlign=top;align=center;strokeColor=none;fillColor=#00BEF2;shape=mxgraph.azure.script_file;pointerEvents=1;" parent="1" vertex="1">
                    <mxGeometry x="-70" y="440" width="47.5" height="50" as="geometry"/>
                </mxCell>
                <mxCell id="zTZlSgEMjeJYer07fA5H-32" style="edgeStyle=orthogonalEdgeStyle;rounded=0;orthogonalLoop=1;jettySize=auto;html=1;" parent="1" source="zTZlSgEMjeJYer07fA5H-27" target="zTZlSgEMjeJYer07fA5H-23" edge="1">
                    <mxGeometry relative="1" as="geometry"/>
                </mxCell>
                <mxCell id="zTZlSgEMjeJYer07fA5H-36" value="" style="edgeStyle=orthogonalEdgeStyle;rounded=0;orthogonalLoop=1;jettySize=auto;html=1;" parent="1" source="zTZlSgEMjeJYer07fA5H-27" target="zTZlSgEMjeJYer07fA5H-19" edge="1">
                    <mxGeometry relative="1" as="geometry"/>
                </mxCell>
                <mxCell id="zTZlSgEMjeJYer07fA5H-27" value="&lt;div&gt;reducers&lt;/div&gt;" style="sketch=0;pointerEvents=1;shadow=0;dashed=0;html=1;strokeColor=none;fillColor=#005F4B;labelPosition=center;verticalLabelPosition=bottom;verticalAlign=top;align=center;outlineConnect=0;shape=mxgraph.veeam2.folder;fontSize=19;" parent="1" vertex="1">
                    <mxGeometry x="-165" y="620" width="40" height="30" as="geometry"/>
                </mxCell>
                <mxCell id="zTZlSgEMjeJYer07fA5H-31" style="edgeStyle=orthogonalEdgeStyle;rounded=0;orthogonalLoop=1;jettySize=auto;html=1;" parent="1" source="zTZlSgEMjeJYer07fA5H-28" target="zTZlSgEMjeJYer07fA5H-23" edge="1">
                    <mxGeometry relative="1" as="geometry"/>
                </mxCell>
                <mxCell id="zTZlSgEMjeJYer07fA5H-35" value="" style="edgeStyle=orthogonalEdgeStyle;rounded=0;orthogonalLoop=1;jettySize=auto;html=1;" parent="1" source="zTZlSgEMjeJYer07fA5H-28" target="zTZlSgEMjeJYer07fA5H-27" edge="1">
                    <mxGeometry relative="1" as="geometry"/>
                </mxCell>
                <mxCell id="zTZlSgEMjeJYer07fA5H-28" value="&lt;div&gt;actions&lt;/div&gt;" style="sketch=0;pointerEvents=1;shadow=0;dashed=0;html=1;strokeColor=none;fillColor=#005F4B;labelPosition=center;verticalLabelPosition=bottom;verticalAlign=top;align=center;outlineConnect=0;shape=mxgraph.veeam2.folder;fontSize=19;" parent="1" vertex="1">
                    <mxGeometry x="-165" y="540" width="40" height="30" as="geometry"/>
                </mxCell>
                <mxCell id="zTZlSgEMjeJYer07fA5H-37" value="we will have the runtime loading / dynamic loading for the components for auth module ." style="text;html=1;align=center;verticalAlign=middle;whiteSpace=wrap;rounded=0;fontSize=20;fillColor=#e1d5e7;strokeColor=#9673a6;" parent="1" vertex="1">
                    <mxGeometry x="-190" y="810" width="300" height="70" as="geometry"/>
                </mxCell>
                <mxCell id="zTZlSgEMjeJYer07fA5H-45" value="" style="edgeStyle=orthogonalEdgeStyle;rounded=0;orthogonalLoop=1;jettySize=auto;html=1;" parent="1" source="zTZlSgEMjeJYer07fA5H-38" target="zTZlSgEMjeJYer07fA5H-42" edge="1">
                    <mxGeometry relative="1" as="geometry"/>
                </mxCell>
                <mxCell id="zTZlSgEMjeJYer07fA5H-38" value="redux from auth" style="rounded=1;whiteSpace=wrap;html=1;" parent="1" vertex="1">
                    <mxGeometry x="-150" y="1220" width="120" height="60" as="geometry"/>
                </mxCell>
                <mxCell id="zTZlSgEMjeJYer07fA5H-39" value="" style="rounded=1;whiteSpace=wrap;html=1;" parent="1" vertex="1">
                    <mxGeometry x="95" y="1710" width="435" height="100" as="geometry"/>
                </mxCell>
                <mxCell id="zTZlSgEMjeJYer07fA5H-46" style="edgeStyle=orthogonalEdgeStyle;rounded=0;orthogonalLoop=1;jettySize=auto;html=1;entryX=0;entryY=0.5;entryDx=0;entryDy=0;" parent="1" source="zTZlSgEMjeJYer07fA5H-40" target="zTZlSgEMjeJYer07fA5H-42" edge="1">
                    <mxGeometry relative="1" as="geometry"/>
                </mxCell>
                <mxCell id="zTZlSgEMjeJYer07fA5H-40" value="redux from profile&amp;nbsp;" style="rounded=1;whiteSpace=wrap;html=1;" parent="1" vertex="1">
                    <mxGeometry x="-380" y="1280" width="120" height="60" as="geometry"/>
                </mxCell>
                <mxCell id="zTZlSgEMjeJYer07fA5H-47" style="edgeStyle=orthogonalEdgeStyle;rounded=0;orthogonalLoop=1;jettySize=auto;html=1;" parent="1" source="zTZlSgEMjeJYer07fA5H-41" edge="1">
                    <mxGeometry relative="1" as="geometry">
                        <mxPoint x="-30" y="1350" as="targetPoint"/>
                    </mxGeometry>
                </mxCell>
                <mxCell id="zTZlSgEMjeJYer07fA5H-41" value="redux from core" style="rounded=1;whiteSpace=wrap;html=1;" parent="1" vertex="1">
                    <mxGeometry x="70" y="1290" width="120" height="60" as="geometry"/>
                </mxCell>
                <mxCell id="zTZlSgEMjeJYer07fA5H-42" value="redux ( under src)" style="rounded=1;whiteSpace=wrap;html=1;" parent="1" vertex="1">
                    <mxGeometry x="-160" y="1320" width="120" height="60" as="geometry"/>
                </mxCell>
                <mxCell id="zTZlSgEMjeJYer07fA5H-48" value="" style="rounded=1;whiteSpace=wrap;html=1;" parent="1" vertex="1">
                    <mxGeometry x="70" y="1520" width="530" height="540" as="geometry"/>
                </mxCell>
                <mxCell id="zTZlSgEMjeJYer07fA5H-49" value="Header(fixed position wise) but will render the content dynamically depending on the req." style="rounded=1;whiteSpace=wrap;html=1;fontSize=24;" parent="1" vertex="1">
                    <mxGeometry x="103" y="1560" width="470" height="100" as="geometry"/>
                </mxCell>
                <mxCell id="zTZlSgEMjeJYer07fA5H-50" value="HomePage" style="text;html=1;align=center;verticalAlign=middle;whiteSpace=wrap;rounded=0;fontSize=25;" parent="1" vertex="1">
                    <mxGeometry x="-170" y="1610" width="170" height="50" as="geometry"/>
                </mxCell>
                <mxCell id="zTZlSgEMjeJYer07fA5H-51" value="Footer" style="rounded=1;whiteSpace=wrap;html=1;fontSize=22;" parent="1" vertex="1">
                    <mxGeometry x="95" y="1940" width="470" height="100" as="geometry"/>
                </mxCell>
                <mxCell id="zTZlSgEMjeJYer07fA5H-52" value="Landing(dynamically)&amp;nbsp;" style="rounded=1;whiteSpace=wrap;html=1;fontSize=26;" parent="1" vertex="1">
                    <mxGeometry x="95" y="1720" width="470" height="120" as="geometry"/>
                </mxCell>
                <mxCell id="zTZlSgEMjeJYer07fA5H-56" value="" style="edgeStyle=orthogonalEdgeStyle;rounded=0;orthogonalLoop=1;jettySize=auto;html=1;" parent="1" source="zTZlSgEMjeJYer07fA5H-54" target="zTZlSgEMjeJYer07fA5H-55" edge="1">
                    <mxGeometry relative="1" as="geometry"/>
                </mxCell>
                <mxCell id="zTZlSgEMjeJYer07fA5H-58" value="" style="edgeStyle=orthogonalEdgeStyle;rounded=0;orthogonalLoop=1;jettySize=auto;html=1;" parent="1" source="zTZlSgEMjeJYer07fA5H-54" target="zTZlSgEMjeJYer07fA5H-57" edge="1">
                    <mxGeometry relative="1" as="geometry"/>
                </mxCell>
                <mxCell id="zTZlSgEMjeJYer07fA5H-54" value="Router : we need a lib called react-router-dom" style="rounded=1;whiteSpace=wrap;html=1;fontSize=21;fillColor=#1ba1e2;fontColor=#ffffff;strokeColor=#006EAF;" parent="1" vertex="1">
                    <mxGeometry x="-260" y="1700" width="230" height="120" as="geometry"/>
                </mxCell>
                <mxCell id="zTZlSgEMjeJYer07fA5H-55" value="1. SPA" style="whiteSpace=wrap;html=1;fontSize=21;fillColor=#1ba1e2;strokeColor=#006EAF;fontColor=#ffffff;rounded=1;" parent="1" vertex="1">
                    <mxGeometry x="-205" y="1930" width="120" height="60" as="geometry"/>
                </mxCell>
                <mxCell id="zTZlSgEMjeJYer07fA5H-60" value="" style="edgeStyle=orthogonalEdgeStyle;rounded=0;orthogonalLoop=1;jettySize=auto;html=1;" parent="1" source="zTZlSgEMjeJYer07fA5H-57" target="zTZlSgEMjeJYer07fA5H-59" edge="1">
                    <mxGeometry relative="1" as="geometry"/>
                </mxCell>
                <mxCell id="zTZlSgEMjeJYer07fA5H-57" value="react-router&amp;nbsp;&lt;div&gt;why. DOM?&lt;/div&gt;" style="whiteSpace=wrap;html=1;fontSize=21;fillColor=#1ba1e2;strokeColor=#006EAF;fontColor=#ffffff;rounded=1;" parent="1" vertex="1">
                    <mxGeometry x="-540" y="1730" width="145" height="60" as="geometry"/>
                </mxCell>
                <mxCell id="zTZlSgEMjeJYer07fA5H-59" value="react-router-dom is the official routing lib for react app that runs in the browser(DOM)" style="whiteSpace=wrap;html=1;fontSize=21;fillColor=#f0a30a;strokeColor=#BD7000;fontColor=#000000;rounded=1;" parent="1" vertex="1">
                    <mxGeometry x="-581.25" y="1850" width="227.5" height="150" as="geometry"/>
                </mxCell>
            </root>
        </mxGraphModel>
    </diagram>
    <diagram id="Kj-hu-N7HCdK02GjyuVx" name="Page-3">
        <mxGraphModel dx="1979" dy="532" grid="1" gridSize="10" guides="1" tooltips="1" connect="1" arrows="1" fold="1" page="1" pageScale="1" pageWidth="850" pageHeight="1100" math="0" shadow="0">
            <root>
                <mxCell id="0"/>
                <mxCell id="1" parent="0"/>
                <mxCell id="4pygo23Wnhsei0VyJCF3-10" value="" style="edgeStyle=orthogonalEdgeStyle;rounded=0;orthogonalLoop=1;jettySize=auto;html=1;" parent="1" source="4pygo23Wnhsei0VyJCF3-1" target="4pygo23Wnhsei0VyJCF3-9" edge="1">
                    <mxGeometry relative="1" as="geometry"/>
                </mxCell>
                <mxCell id="4pygo23Wnhsei0VyJCF3-1" value="1. we must collect the form data&lt;div&gt;2. we mst print the form data.&lt;/div&gt;&lt;div&gt;3. we should perform hte rest call&lt;/div&gt;&lt;div&gt;4. we should handle post rest call part i.e. success or failure.&lt;/div&gt;&lt;div&gt;&lt;br&gt;&lt;/div&gt;" style="rounded=1;whiteSpace=wrap;html=1;fontSize=19;" parent="1" vertex="1">
                    <mxGeometry x="120" y="330" width="570" height="240" as="geometry"/>
                </mxCell>
                <mxCell id="4pygo23Wnhsei0VyJCF3-4" value="" style="edgeStyle=orthogonalEdgeStyle;rounded=0;orthogonalLoop=1;jettySize=auto;html=1;" parent="1" source="4pygo23Wnhsei0VyJCF3-2" target="4pygo23Wnhsei0VyJCF3-3" edge="1">
                    <mxGeometry relative="1" as="geometry"/>
                </mxCell>
                <mxCell id="4pygo23Wnhsei0VyJCF3-2" value="Front End" style="rounded=1;whiteSpace=wrap;html=1;" parent="1" vertex="1">
                    <mxGeometry x="70" y="620" width="120" height="60" as="geometry"/>
                </mxCell>
                <mxCell id="4pygo23Wnhsei0VyJCF3-8" value="" style="edgeStyle=orthogonalEdgeStyle;rounded=0;orthogonalLoop=1;jettySize=auto;html=1;" parent="1" source="4pygo23Wnhsei0VyJCF3-3" target="4pygo23Wnhsei0VyJCF3-7" edge="1">
                    <mxGeometry relative="1" as="geometry"/>
                </mxCell>
                <mxCell id="4pygo23Wnhsei0VyJCF3-3" value="Backend" style="whiteSpace=wrap;html=1;rounded=1;" parent="1" vertex="1">
                    <mxGeometry x="270" y="620" width="120" height="60" as="geometry"/>
                </mxCell>
                <mxCell id="4pygo23Wnhsei0VyJCF3-5" value="" style="shape=cylinder3;whiteSpace=wrap;html=1;boundedLbl=1;backgroundOutline=1;size=15;" parent="1" vertex="1">
                    <mxGeometry x="500" y="610" width="60" height="80" as="geometry"/>
                </mxCell>
                <mxCell id="4pygo23Wnhsei0VyJCF3-6" style="edgeStyle=orthogonalEdgeStyle;rounded=0;orthogonalLoop=1;jettySize=auto;html=1;entryX=0;entryY=0.5;entryDx=0;entryDy=0;entryPerimeter=0;" parent="1" source="4pygo23Wnhsei0VyJCF3-3" target="4pygo23Wnhsei0VyJCF3-5" edge="1">
                    <mxGeometry relative="1" as="geometry"/>
                </mxCell>
                <mxCell id="4pygo23Wnhsei0VyJCF3-7" value="rest apis&amp;nbsp;" style="whiteSpace=wrap;html=1;rounded=1;" parent="1" vertex="1">
                    <mxGeometry x="270" y="760" width="120" height="60" as="geometry"/>
                </mxCell>
                <mxCell id="4pygo23Wnhsei0VyJCF3-9" value="Form handling :&amp;nbsp;&lt;div&gt;1. we have to define the onChange and onsubmit events .&lt;/div&gt;&lt;div&gt;onChange : when there is change in the input&lt;/div&gt;&lt;div&gt;onSubmit : to submit the form.&lt;/div&gt;&lt;div&gt;3. declare the state&lt;/div&gt;&lt;div&gt;4. to capture the updated values we have to use state in onChange.&lt;/div&gt;&lt;div&gt;5. onSUbmit : we will capture the data from state and we will utilize it for our rest call.&lt;/div&gt;" style="whiteSpace=wrap;html=1;fontSize=19;rounded=1;" parent="1" vertex="1">
                    <mxGeometry x="260" y="10" width="390" height="250" as="geometry"/>
                </mxCell>
                <mxCell id="4pygo23Wnhsei0VyJCF3-48" value="" style="edgeStyle=orthogonalEdgeStyle;rounded=0;orthogonalLoop=1;jettySize=auto;html=1;" parent="1" source="4pygo23Wnhsei0VyJCF3-27" target="4pygo23Wnhsei0VyJCF3-47" edge="1">
                    <mxGeometry relative="1" as="geometry"/>
                </mxCell>
                <mxCell id="4pygo23Wnhsei0VyJCF3-27" value="" style="rounded=1;whiteSpace=wrap;html=1;fillColor=#dae8fc;strokeColor=#6c8ebf;" parent="1" vertex="1">
                    <mxGeometry x="80" y="970" width="890" height="770" as="geometry"/>
                </mxCell>
                <mxCell id="4pygo23Wnhsei0VyJCF3-31" value="Email address" style="fillColor=none;strokeColor=none;align=left;fontSize=14;" parent="1" vertex="1">
                    <mxGeometry x="100" y="1110" width="260" height="40" as="geometry"/>
                </mxCell>
                <mxCell id="4pygo23Wnhsei0VyJCF3-32" value="name@example.com" style="html=1;shadow=0;dashed=0;shape=mxgraph.bootstrap.rrect;rSize=5;fillColor=none;strokeColor=#999999;align=left;spacing=15;fontSize=14;fontColor=#6C767D;" parent="1" vertex="1">
                    <mxGeometry width="800" height="30" relative="1" as="geometry">
                        <mxPoint x="100" y="1150" as="offset"/>
                    </mxGeometry>
                </mxCell>
                <mxCell id="4pygo23Wnhsei0VyJCF3-33" value="Example select" style="fillColor=none;strokeColor=none;align=left;fontSize=14;" parent="1" vertex="1">
                    <mxGeometry width="260" height="40" relative="1" as="geometry">
                        <mxPoint x="100" y="1190" as="offset"/>
                    </mxGeometry>
                </mxCell>
                <mxCell id="4pygo23Wnhsei0VyJCF3-34" value="1" style="html=1;shadow=0;dashed=0;shape=mxgraph.bootstrap.rrect;rSize=5;fillColor=none;strokeColor=#999999;align=left;spacing=15;fontSize=14;fontColor=#6C767D;" parent="1" vertex="1">
                    <mxGeometry width="800" height="30" relative="1" as="geometry">
                        <mxPoint x="100" y="1230" as="offset"/>
                    </mxGeometry>
                </mxCell>
                <mxCell id="4pygo23Wnhsei0VyJCF3-35" value="Example multiple select" style="fillColor=none;strokeColor=none;align=left;fontSize=14;" parent="1" vertex="1">
                    <mxGeometry width="260" height="40" relative="1" as="geometry">
                        <mxPoint x="100" y="1270" as="offset"/>
                    </mxGeometry>
                </mxCell>
                <mxCell id="4pygo23Wnhsei0VyJCF3-36" value="" style="html=1;shadow=0;dashed=0;shape=mxgraph.bootstrap.rrect;rSize=5;fillColor=none;strokeColor=#999999;align=left;spacing=15;fontSize=14;fontColor=#6C767D;" parent="1" vertex="1">
                    <mxGeometry width="800" height="100" relative="1" as="geometry">
                        <mxPoint x="100" y="1310" as="offset"/>
                    </mxGeometry>
                </mxCell>
                <mxCell id="4pygo23Wnhsei0VyJCF3-37" value="" style="html=1;shadow=0;dashed=0;shape=mxgraph.bootstrap.rightButton;rSize=5;fillColor=#F1F1F1;strokeColor=#999999;" parent="4pygo23Wnhsei0VyJCF3-36" vertex="1">
                    <mxGeometry x="1" width="20" height="100" relative="1" as="geometry">
                        <mxPoint x="-20" as="offset"/>
                    </mxGeometry>
                </mxCell>
                <mxCell id="4pygo23Wnhsei0VyJCF3-38" value="" style="fillColor=#C1C1C1;strokeColor=none;" parent="4pygo23Wnhsei0VyJCF3-37" vertex="1">
                    <mxGeometry width="16" height="45" relative="1" as="geometry">
                        <mxPoint x="2" y="20" as="offset"/>
                    </mxGeometry>
                </mxCell>
                <mxCell id="4pygo23Wnhsei0VyJCF3-39" value="" style="shape=triangle;direction=north;fillColor=#C1C1C1;strokeColor=none;perimeter=none;" parent="4pygo23Wnhsei0VyJCF3-37" vertex="1">
                    <mxGeometry width="10" height="5" relative="1" as="geometry">
                        <mxPoint x="5" y="7.5" as="offset"/>
                    </mxGeometry>
                </mxCell>
                <mxCell id="4pygo23Wnhsei0VyJCF3-40" value="" style="shape=triangle;direction=south;fillColor=#505050;strokeColor=none;perimeter=none;" parent="4pygo23Wnhsei0VyJCF3-37" vertex="1">
                    <mxGeometry y="1" width="10" height="5" relative="1" as="geometry">
                        <mxPoint x="5" y="-12.5" as="offset"/>
                    </mxGeometry>
                </mxCell>
                <mxCell id="4pygo23Wnhsei0VyJCF3-41" value="1" style="fillColor=none;strokeColor=none;align=left;spacing=15;fontSize=14;fontColor=#6C767D;" parent="4pygo23Wnhsei0VyJCF3-36" vertex="1">
                    <mxGeometry width="780" height="20" relative="1" as="geometry">
                        <mxPoint y="10" as="offset"/>
                    </mxGeometry>
                </mxCell>
                <mxCell id="4pygo23Wnhsei0VyJCF3-42" value="2" style="fillColor=none;strokeColor=none;align=left;spacing=15;fontSize=14;fontColor=#6C767D;" parent="4pygo23Wnhsei0VyJCF3-36" vertex="1">
                    <mxGeometry width="780" height="20" relative="1" as="geometry">
                        <mxPoint y="30" as="offset"/>
                    </mxGeometry>
                </mxCell>
                <mxCell id="4pygo23Wnhsei0VyJCF3-43" value="3" style="fillColor=none;strokeColor=none;align=left;spacing=15;fontSize=14;fontColor=#6C767D;" parent="4pygo23Wnhsei0VyJCF3-36" vertex="1">
                    <mxGeometry width="780" height="20" relative="1" as="geometry">
                        <mxPoint y="50" as="offset"/>
                    </mxGeometry>
                </mxCell>
                <mxCell id="4pygo23Wnhsei0VyJCF3-44" value="4" style="fillColor=none;strokeColor=none;align=left;spacing=15;fontSize=14;fontColor=#6C767D;" parent="4pygo23Wnhsei0VyJCF3-36" vertex="1">
                    <mxGeometry width="780" height="20" relative="1" as="geometry">
                        <mxPoint y="70" as="offset"/>
                    </mxGeometry>
                </mxCell>
                <mxCell id="4pygo23Wnhsei0VyJCF3-45" value="Example textarea" style="fillColor=none;strokeColor=none;align=left;fontSize=14;" parent="1" vertex="1">
                    <mxGeometry width="260" height="40" relative="1" as="geometry">
                        <mxPoint x="100" y="1420" as="offset"/>
                    </mxGeometry>
                </mxCell>
                <mxCell id="4pygo23Wnhsei0VyJCF3-46" value="" style="html=1;shadow=0;dashed=0;shape=mxgraph.bootstrap.rrect;rSize=5;fillColor=none;strokeColor=#999999;align=left;spacing=15;fontSize=14;fontColor=#6C767D;" parent="1" vertex="1">
                    <mxGeometry width="800" height="90" relative="1" as="geometry">
                        <mxPoint x="100" y="1460" as="offset"/>
                    </mxGeometry>
                </mxCell>
                <mxCell id="4pygo23Wnhsei0VyJCF3-50" value="" style="edgeStyle=orthogonalEdgeStyle;rounded=0;orthogonalLoop=1;jettySize=auto;html=1;" parent="1" source="4pygo23Wnhsei0VyJCF3-47" target="4pygo23Wnhsei0VyJCF3-49" edge="1">
                    <mxGeometry relative="1" as="geometry"/>
                </mxCell>
                <mxCell id="4pygo23Wnhsei0VyJCF3-47" value="do we need some one to hold the data (which is accepted from the form." style="whiteSpace=wrap;html=1;fillColor=#dae8fc;strokeColor=#6c8ebf;rounded=1;fontSize=22;" parent="1" vertex="1">
                    <mxGeometry x="402.5" y="1860" width="245" height="80" as="geometry"/>
                </mxCell>
                <mxCell id="4pygo23Wnhsei0VyJCF3-52" value="" style="edgeStyle=orthogonalEdgeStyle;rounded=0;orthogonalLoop=1;jettySize=auto;html=1;" parent="1" source="4pygo23Wnhsei0VyJCF3-49" target="4pygo23Wnhsei0VyJCF3-51" edge="1">
                    <mxGeometry relative="1" as="geometry"/>
                </mxCell>
                <mxCell id="4pygo23Wnhsei0VyJCF3-54" value="" style="edgeStyle=orthogonalEdgeStyle;rounded=0;orthogonalLoop=1;jettySize=auto;html=1;" parent="1" source="4pygo23Wnhsei0VyJCF3-49" target="4pygo23Wnhsei0VyJCF3-53" edge="1">
                    <mxGeometry relative="1" as="geometry"/>
                </mxCell>
                <mxCell id="4pygo23Wnhsei0VyJCF3-56" value="" style="edgeStyle=orthogonalEdgeStyle;rounded=0;orthogonalLoop=1;jettySize=auto;html=1;" parent="1" source="4pygo23Wnhsei0VyJCF3-49" target="4pygo23Wnhsei0VyJCF3-55" edge="1">
                    <mxGeometry relative="1" as="geometry"/>
                </mxCell>
                <mxCell id="4pygo23Wnhsei0VyJCF3-49" value="state : its an object that stores data about a component." style="whiteSpace=wrap;html=1;fontSize=22;fillColor=#dae8fc;strokeColor=#6c8ebf;rounded=1;" parent="1" vertex="1">
                    <mxGeometry x="427.5" y="2010" width="195" height="110" as="geometry"/>
                </mxCell>
                <mxCell id="4pygo23Wnhsei0VyJCF3-51" value="form" style="whiteSpace=wrap;html=1;fontSize=22;fillColor=#dae8fc;strokeColor=#6c8ebf;rounded=1;" parent="1" vertex="1">
                    <mxGeometry x="740" y="2035" width="120" height="60" as="geometry"/>
                </mxCell>
                <mxCell id="4pygo23Wnhsei0VyJCF3-53" value="when u state changes , react re render the data automatically.&lt;div&gt;this state its not a permant one its in-memory one.&lt;/div&gt;" style="whiteSpace=wrap;html=1;fontSize=22;fillColor=#dae8fc;strokeColor=#6c8ebf;rounded=1;" parent="1" vertex="1">
                    <mxGeometry x="30" y="1942.5" width="320" height="245" as="geometry"/>
                </mxCell>
                <mxCell id="4pygo23Wnhsei0VyJCF3-55" value="state is immutable in nature&amp;nbsp;" style="whiteSpace=wrap;html=1;fontSize=22;fillColor=#dae8fc;strokeColor=#6c8ebf;rounded=1;" parent="1" vertex="1">
                    <mxGeometry x="407.5" y="2187.5" width="235" height="60" as="geometry"/>
                </mxCell>
                <mxCell id="4pygo23Wnhsei0VyJCF3-59" value="" style="edgeStyle=orthogonalEdgeStyle;rounded=0;orthogonalLoop=1;jettySize=auto;html=1;" parent="1" source="4pygo23Wnhsei0VyJCF3-57" target="4pygo23Wnhsei0VyJCF3-58" edge="1">
                    <mxGeometry relative="1" as="geometry"/>
                </mxCell>
                <mxCell id="4pygo23Wnhsei0VyJCF3-62" value="" style="edgeStyle=orthogonalEdgeStyle;rounded=0;orthogonalLoop=1;jettySize=auto;html=1;" parent="1" source="4pygo23Wnhsei0VyJCF3-57" target="4pygo23Wnhsei0VyJCF3-61" edge="1">
                    <mxGeometry relative="1" as="geometry"/>
                </mxCell>
                <mxCell id="4pygo23Wnhsei0VyJCF3-84" value="" style="edgeStyle=orthogonalEdgeStyle;rounded=0;orthogonalLoop=1;jettySize=auto;html=1;" parent="1" source="4pygo23Wnhsei0VyJCF3-57" target="4pygo23Wnhsei0VyJCF3-83" edge="1">
                    <mxGeometry relative="1" as="geometry"/>
                </mxCell>
                <mxCell id="4pygo23Wnhsei0VyJCF3-57" value="state" style="rounded=1;whiteSpace=wrap;html=1;fontSize=24;" parent="1" vertex="1">
                    <mxGeometry x="395" y="2340" width="120" height="60" as="geometry"/>
                </mxCell>
                <mxCell id="4pygo23Wnhsei0VyJCF3-58" value="immutable&amp;nbsp;" style="whiteSpace=wrap;html=1;fontSize=24;rounded=1;" parent="1" vertex="1">
                    <mxGeometry x="395" y="2540" width="120" height="60" as="geometry"/>
                </mxCell>
                <mxCell id="4pygo23Wnhsei0VyJCF3-60" value="to consume the value&amp;nbsp;" style="text;html=1;align=center;verticalAlign=middle;whiteSpace=wrap;rounded=0;fontSize=19;" parent="1" vertex="1">
                    <mxGeometry x="320" y="2450" width="105" height="60" as="geometry"/>
                </mxCell>
                <mxCell id="4pygo23Wnhsei0VyJCF3-61" value="setState" style="whiteSpace=wrap;html=1;fontSize=24;rounded=1;" parent="1" vertex="1">
                    <mxGeometry x="750" y="2340" width="120" height="60" as="geometry"/>
                </mxCell>
                <mxCell id="4pygo23Wnhsei0VyJCF3-63" value="to manipulate the state" style="text;html=1;align=center;verticalAlign=middle;whiteSpace=wrap;rounded=0;fontSize=19;" parent="1" vertex="1">
                    <mxGeometry x="560" y="2310" width="105" height="60" as="geometry"/>
                </mxCell>
                <mxCell id="4pygo23Wnhsei0VyJCF3-64" value="a = 10 ==&amp;gt; state can&#39;t be cahnged." style="rounded=1;whiteSpace=wrap;html=1;" parent="1" vertex="1">
                    <mxGeometry x="150" y="2350" width="120" height="60" as="geometry"/>
                </mxCell>
                <mxCell id="4pygo23Wnhsei0VyJCF3-67" value="" style="edgeStyle=orthogonalEdgeStyle;rounded=0;orthogonalLoop=1;jettySize=auto;html=1;" parent="1" source="4pygo23Wnhsei0VyJCF3-65" target="4pygo23Wnhsei0VyJCF3-66" edge="1">
                    <mxGeometry relative="1" as="geometry"/>
                </mxCell>
                <mxCell id="4pygo23Wnhsei0VyJCF3-69" value="" style="edgeStyle=orthogonalEdgeStyle;rounded=0;orthogonalLoop=1;jettySize=auto;html=1;" parent="1" source="4pygo23Wnhsei0VyJCF3-65" target="4pygo23Wnhsei0VyJCF3-68" edge="1">
                    <mxGeometry relative="1" as="geometry"/>
                </mxCell>
                <mxCell id="4pygo23Wnhsei0VyJCF3-65" value="2 types of components" style="rounded=1;whiteSpace=wrap;html=1;fontSize=19;" parent="1" vertex="1">
                    <mxGeometry x="427.5" y="2720" width="120" height="60" as="geometry"/>
                </mxCell>
                <mxCell id="4pygo23Wnhsei0VyJCF3-66" value="class ==&amp;gt; statefull" style="whiteSpace=wrap;html=1;fontSize=19;rounded=1;" parent="1" vertex="1">
                    <mxGeometry x="282.5" y="2860" width="120" height="60" as="geometry"/>
                </mxCell>
                <mxCell id="4pygo23Wnhsei0VyJCF3-68" value="functional based ==&amp;gt; stateless" style="whiteSpace=wrap;html=1;fontSize=19;rounded=1;" parent="1" vertex="1">
                    <mxGeometry x="600" y="2860" width="120" height="60" as="geometry"/>
                </mxCell>
                <mxCell id="4pygo23Wnhsei0VyJCF3-72" value="" style="edgeStyle=orthogonalEdgeStyle;rounded=0;orthogonalLoop=1;jettySize=auto;html=1;" parent="1" source="4pygo23Wnhsei0VyJCF3-70" target="4pygo23Wnhsei0VyJCF3-71" edge="1">
                    <mxGeometry relative="1" as="geometry"/>
                </mxCell>
                <mxCell id="4pygo23Wnhsei0VyJCF3-70" value="parent is ahve 10 attributes" style="rounded=1;whiteSpace=wrap;html=1;fontSize=19;" parent="1" vertex="1">
                    <mxGeometry x="320" y="2980" width="120" height="60" as="geometry"/>
                </mxCell>
                <mxCell id="4pygo23Wnhsei0VyJCF3-74" value="" style="edgeStyle=orthogonalEdgeStyle;rounded=0;orthogonalLoop=1;jettySize=auto;html=1;" parent="1" source="4pygo23Wnhsei0VyJCF3-71" target="4pygo23Wnhsei0VyJCF3-73" edge="1">
                    <mxGeometry relative="1" as="geometry"/>
                </mxCell>
                <mxCell id="4pygo23Wnhsei0VyJCF3-71" value="child is having 5" style="whiteSpace=wrap;html=1;fontSize=19;rounded=1;" parent="1" vertex="1">
                    <mxGeometry x="320" y="3120" width="120" height="60" as="geometry"/>
                </mxCell>
                <mxCell id="4pygo23Wnhsei0VyJCF3-73" value="object : 15(1+5) not possible in restrict the memory allocation." style="whiteSpace=wrap;html=1;fontSize=19;rounded=1;" parent="1" vertex="1">
                    <mxGeometry x="530" y="3090" width="210" height="120" as="geometry"/>
                </mxCell>
                <mxCell id="4pygo23Wnhsei0VyJCF3-75" value="as per the need rt ==&amp;gt; we wnat to hold the things" style="text;html=1;align=center;verticalAlign=middle;whiteSpace=wrap;rounded=0;fontSize=18;" parent="1" vertex="1">
                    <mxGeometry x="80" y="3040" width="110" height="130" as="geometry"/>
                </mxCell>
                <mxCell id="4pygo23Wnhsei0VyJCF3-78" value="" style="edgeStyle=orthogonalEdgeStyle;rounded=0;orthogonalLoop=1;jettySize=auto;html=1;" parent="1" source="4pygo23Wnhsei0VyJCF3-76" target="4pygo23Wnhsei0VyJCF3-77" edge="1">
                    <mxGeometry relative="1" as="geometry"/>
                </mxCell>
                <mxCell id="4pygo23Wnhsei0VyJCF3-76" value="Hook" style="rounded=1;whiteSpace=wrap;html=1;fontSize=17;" parent="1" vertex="1">
                    <mxGeometry x="800" y="2730" width="120" height="60" as="geometry"/>
                </mxCell>
                <mxCell id="4pygo23Wnhsei0VyJCF3-79" style="edgeStyle=orthogonalEdgeStyle;rounded=0;orthogonalLoop=1;jettySize=auto;html=1;entryX=1;entryY=0.5;entryDx=0;entryDy=0;" parent="1" source="4pygo23Wnhsei0VyJCF3-77" target="4pygo23Wnhsei0VyJCF3-68" edge="1">
                    <mxGeometry relative="1" as="geometry"/>
                </mxCell>
                <mxCell id="4pygo23Wnhsei0VyJCF3-81" value="" style="edgeStyle=orthogonalEdgeStyle;rounded=0;orthogonalLoop=1;jettySize=auto;html=1;" parent="1" source="4pygo23Wnhsei0VyJCF3-77" target="4pygo23Wnhsei0VyJCF3-80" edge="1">
                    <mxGeometry relative="1" as="geometry"/>
                </mxCell>
                <mxCell id="4pygo23Wnhsei0VyJCF3-77" value="data (state)&lt;div&gt;useEffect with 3 formats&lt;/div&gt;" style="whiteSpace=wrap;html=1;fontSize=17;rounded=1;" parent="1" vertex="1">
                    <mxGeometry x="800" y="2870" width="120" height="60" as="geometry"/>
                </mxCell>
                <mxCell id="4pygo23Wnhsei0VyJCF3-80" value="every hook will start with use keyword" style="whiteSpace=wrap;html=1;fontSize=17;rounded=1;" parent="1" vertex="1">
                    <mxGeometry x="800" y="3010" width="120" height="60" as="geometry"/>
                </mxCell>
                <mxCell id="csJU7fh8M1j_SP3uTPI9-2" value="" style="edgeStyle=none;html=1;" edge="1" parent="1" source="4pygo23Wnhsei0VyJCF3-83" target="csJU7fh8M1j_SP3uTPI9-1">
                    <mxGeometry relative="1" as="geometry"/>
                </mxCell>
                <mxCell id="4pygo23Wnhsei0VyJCF3-83" value="useState" style="whiteSpace=wrap;html=1;fontSize=24;rounded=1;" parent="1" vertex="1">
                    <mxGeometry x="230" y="2270" width="120" height="60" as="geometry"/>
                </mxCell>
                <mxCell id="csJU7fh8M1j_SP3uTPI9-4" value="" style="edgeStyle=none;html=1;" edge="1" parent="1" source="csJU7fh8M1j_SP3uTPI9-1" target="csJU7fh8M1j_SP3uTPI9-3">
                    <mxGeometry relative="1" as="geometry"/>
                </mxCell>
                <mxCell id="csJU7fh8M1j_SP3uTPI9-6" value="" style="edgeStyle=none;html=1;" edge="1" parent="1" source="csJU7fh8M1j_SP3uTPI9-1" target="csJU7fh8M1j_SP3uTPI9-5">
                    <mxGeometry relative="1" as="geometry"/>
                </mxCell>
                <mxCell id="csJU7fh8M1j_SP3uTPI9-1" value="hook :&amp;nbsp;" style="whiteSpace=wrap;html=1;fontSize=24;rounded=1;" vertex="1" parent="1">
                    <mxGeometry x="30" y="2270" width="120" height="60" as="geometry"/>
                </mxCell>
                <mxCell id="csJU7fh8M1j_SP3uTPI9-3" value="class based&amp;nbsp; component when u wnat to hold the data for the forms" style="whiteSpace=wrap;html=1;fontSize=24;rounded=1;" vertex="1" parent="1">
                    <mxGeometry x="-190" y="2410" width="360" height="170" as="geometry"/>
                </mxCell>
                <mxCell id="csJU7fh8M1j_SP3uTPI9-5" value="all hook names start with word use." style="whiteSpace=wrap;html=1;fontSize=24;rounded=1;" vertex="1" parent="1">
                    <mxGeometry x="-180" y="2260" width="120" height="110" as="geometry"/>
                </mxCell>
            </root>
        </mxGraphModel>
    </diagram>
    <diagram id="QxcrrS8p8qnSgdaOWLar" name="rest call">
        <mxGraphModel dx="1186" dy="760" grid="1" gridSize="10" guides="1" tooltips="1" connect="1" arrows="1" fold="1" page="1" pageScale="1" pageWidth="850" pageHeight="1100" math="0" shadow="0">
            <root>
                <mxCell id="0"/>
                <mxCell id="1" parent="0"/>
                <mxCell id="_pqO8WH65tW24zCMASVm-3" value="" style="edgeStyle=orthogonalEdgeStyle;rounded=0;orthogonalLoop=1;jettySize=auto;html=1;" edge="1" parent="1" source="_pqO8WH65tW24zCMASVm-1" target="_pqO8WH65tW24zCMASVm-2">
                    <mxGeometry relative="1" as="geometry"/>
                </mxCell>
                <mxCell id="_pqO8WH65tW24zCMASVm-5" value="" style="edgeStyle=orthogonalEdgeStyle;rounded=0;orthogonalLoop=1;jettySize=auto;html=1;" edge="1" parent="1" source="_pqO8WH65tW24zCMASVm-1" target="_pqO8WH65tW24zCMASVm-4">
                    <mxGeometry relative="1" as="geometry"/>
                </mxCell>
                <mxCell id="_pqO8WH65tW24zCMASVm-1" value="rest call using axios&amp;nbsp;" style="rounded=1;whiteSpace=wrap;html=1;fontSize=20;" vertex="1" parent="1">
                    <mxGeometry x="210" y="300" width="330" height="60" as="geometry"/>
                </mxCell>
                <mxCell id="_pqO8WH65tW24zCMASVm-2" value="server" style="whiteSpace=wrap;html=1;fontSize=20;rounded=1;" vertex="1" parent="1">
                    <mxGeometry x="315" y="160" width="120" height="60" as="geometry"/>
                </mxCell>
                <mxCell id="_pqO8WH65tW24zCMASVm-7" value="" style="edgeStyle=orthogonalEdgeStyle;rounded=0;orthogonalLoop=1;jettySize=auto;html=1;" edge="1" parent="1" source="_pqO8WH65tW24zCMASVm-4" target="_pqO8WH65tW24zCMASVm-6">
                    <mxGeometry relative="1" as="geometry"/>
                </mxCell>
                <mxCell id="_pqO8WH65tW24zCMASVm-4" value="config and proxy(vite.config.js)" style="whiteSpace=wrap;html=1;fontSize=20;rounded=1;" vertex="1" parent="1">
                    <mxGeometry x="277.5" y="440" width="195" height="60" as="geometry"/>
                </mxCell>
                <mxCell id="_pqO8WH65tW24zCMASVm-9" value="" style="edgeStyle=orthogonalEdgeStyle;rounded=0;orthogonalLoop=1;jettySize=auto;html=1;" edge="1" parent="1" source="_pqO8WH65tW24zCMASVm-6" target="_pqO8WH65tW24zCMASVm-8">
                    <mxGeometry relative="1" as="geometry"/>
                </mxCell>
                <mxCell id="_pqO8WH65tW24zCMASVm-13" value="" style="edgeStyle=orthogonalEdgeStyle;rounded=0;orthogonalLoop=1;jettySize=auto;html=1;" edge="1" parent="1" source="_pqO8WH65tW24zCMASVm-6" target="_pqO8WH65tW24zCMASVm-12">
                    <mxGeometry relative="1" as="geometry"/>
                </mxCell>
                <mxCell id="_pqO8WH65tW24zCMASVm-6" value="axios" style="whiteSpace=wrap;html=1;fontSize=20;rounded=1;" vertex="1" parent="1">
                    <mxGeometry x="315" y="580" width="120" height="60" as="geometry"/>
                </mxCell>
                <mxCell id="_pqO8WH65tW24zCMASVm-11" value="" style="edgeStyle=orthogonalEdgeStyle;rounded=0;orthogonalLoop=1;jettySize=auto;html=1;" edge="1" parent="1" source="_pqO8WH65tW24zCMASVm-8" target="_pqO8WH65tW24zCMASVm-10">
                    <mxGeometry relative="1" as="geometry"/>
                </mxCell>
                <mxCell id="_pqO8WH65tW24zCMASVm-8" value="service we will use them to perform the rest calls)" style="whiteSpace=wrap;html=1;fontSize=20;rounded=1;" vertex="1" parent="1">
                    <mxGeometry x="242.5" y="720" width="265" height="60" as="geometry"/>
                </mxCell>
                <mxCell id="_pqO8WH65tW24zCMASVm-19" value="" style="edgeStyle=orthogonalEdgeStyle;rounded=0;orthogonalLoop=1;jettySize=auto;html=1;" edge="1" parent="1" source="_pqO8WH65tW24zCMASVm-10" target="_pqO8WH65tW24zCMASVm-18">
                    <mxGeometry relative="1" as="geometry"/>
                </mxCell>
                <mxCell id="_pqO8WH65tW24zCMASVm-10" value="components" style="whiteSpace=wrap;html=1;fontSize=20;rounded=1;" vertex="1" parent="1">
                    <mxGeometry x="315" y="860" width="120" height="60" as="geometry"/>
                </mxCell>
                <mxCell id="_pqO8WH65tW24zCMASVm-12" value="have we defined in the API.js (utils)" style="whiteSpace=wrap;html=1;fontSize=20;rounded=1;fillColor=#dae8fc;strokeColor=#6c8ebf;" vertex="1" parent="1">
                    <mxGeometry x="515" y="580" width="195" height="60" as="geometry"/>
                </mxCell>
                <mxCell id="_pqO8WH65tW24zCMASVm-17" style="edgeStyle=orthogonalEdgeStyle;rounded=0;orthogonalLoop=1;jettySize=auto;html=1;entryX=0.646;entryY=-0.067;entryDx=0;entryDy=0;entryPerimeter=0;" edge="1" parent="1" source="_pqO8WH65tW24zCMASVm-4" target="_pqO8WH65tW24zCMASVm-12">
                    <mxGeometry relative="1" as="geometry"/>
                </mxCell>
                <mxCell id="_pqO8WH65tW24zCMASVm-18" value="Form" style="whiteSpace=wrap;html=1;fontSize=20;rounded=1;" vertex="1" parent="1">
                    <mxGeometry x="315" y="1000" width="120" height="60" as="geometry"/>
                </mxCell>
                <mxCell id="_pqO8WH65tW24zCMASVm-24" value="" style="edgeStyle=orthogonalEdgeStyle;rounded=0;orthogonalLoop=1;jettySize=auto;html=1;" edge="1" parent="1" source="_pqO8WH65tW24zCMASVm-20" target="_pqO8WH65tW24zCMASVm-23">
                    <mxGeometry relative="1" as="geometry"/>
                </mxCell>
                <mxCell id="_pqO8WH65tW24zCMASVm-20" value="registerUser" style="rounded=1;whiteSpace=wrap;html=1;fontSize=21;" vertex="1" parent="1">
                    <mxGeometry x="330" y="1230" width="180" height="60" as="geometry"/>
                </mxCell>
                <mxCell id="_pqO8WH65tW24zCMASVm-26" value="" style="edgeStyle=orthogonalEdgeStyle;rounded=0;orthogonalLoop=1;jettySize=auto;html=1;" edge="1" parent="1" source="_pqO8WH65tW24zCMASVm-23" target="_pqO8WH65tW24zCMASVm-25">
                    <mxGeometry relative="1" as="geometry"/>
                </mxCell>
                <mxCell id="_pqO8WH65tW24zCMASVm-28" value="" style="edgeStyle=orthogonalEdgeStyle;rounded=0;orthogonalLoop=1;jettySize=auto;html=1;" edge="1" parent="1" source="_pqO8WH65tW24zCMASVm-23" target="_pqO8WH65tW24zCMASVm-27">
                    <mxGeometry relative="1" as="geometry"/>
                </mxCell>
                <mxCell id="_pqO8WH65tW24zCMASVm-23" value="status" style="rhombus;whiteSpace=wrap;html=1;fontSize=21;rounded=1;" vertex="1" parent="1">
                    <mxGeometry x="380" y="1360" width="80" height="80" as="geometry"/>
                </mxCell>
                <mxCell id="_pqO8WH65tW24zCMASVm-25" value="we want to store the token into the Local storage" style="whiteSpace=wrap;html=1;fontSize=21;rounded=1;fillColor=#d5e8d4;strokeColor=#82b366;" vertex="1" parent="1">
                    <mxGeometry x="75" y="1360" width="240" height="80" as="geometry"/>
                </mxCell>
                <mxCell id="_pqO8WH65tW24zCMASVm-27" value="render the failure messages over the form" style="whiteSpace=wrap;html=1;fontSize=21;rounded=1;fillColor=#f8cecc;strokeColor=#b85450;" vertex="1" parent="1">
                    <mxGeometry x="520" y="1370" width="260" height="60" as="geometry"/>
                </mxCell>
                <mxCell id="_pqO8WH65tW24zCMASVm-29" value="fail" style="text;html=1;align=center;verticalAlign=middle;whiteSpace=wrap;rounded=0;fillColor=#f8cecc;strokeColor=#b85450;" vertex="1" parent="1">
                    <mxGeometry x="447.5" y="1360" width="60" height="30" as="geometry"/>
                </mxCell>
                <mxCell id="_pqO8WH65tW24zCMASVm-30" value="success" style="text;html=1;align=center;verticalAlign=middle;whiteSpace=wrap;rounded=0;fillColor=#d5e8d4;strokeColor=#82b366;" vertex="1" parent="1">
                    <mxGeometry x="330" y="1360" width="60" height="30" as="geometry"/>
                </mxCell>
                <mxCell id="_pqO8WH65tW24zCMASVm-31" value="then" style="text;html=1;align=center;verticalAlign=middle;whiteSpace=wrap;rounded=0;fillColor=#d5e8d4;strokeColor=#82b366;" vertex="1" parent="1">
                    <mxGeometry x="150" y="1460" width="60" height="30" as="geometry"/>
                </mxCell>
                <mxCell id="_pqO8WH65tW24zCMASVm-32" value="catch" style="text;html=1;align=center;verticalAlign=middle;whiteSpace=wrap;rounded=0;fillColor=#f8cecc;strokeColor=#b85450;" vertex="1" parent="1">
                    <mxGeometry x="600" y="1450" width="60" height="30" as="geometry"/>
                </mxCell>
            </root>
        </mxGraphModel>
    </diagram>
    <diagram id="q6f1zca6uXZKOTLb3swn" name="Page-5">
        <mxGraphModel dx="644" dy="399" grid="1" gridSize="10" guides="1" tooltips="1" connect="1" arrows="1" fold="1" page="1" pageScale="1" pageWidth="850" pageHeight="1100" math="0" shadow="0">
            <root>
                <mxCell id="0"/>
                <mxCell id="1" parent="0"/>
                <mxCell id="o3wM9i1S2Ux85IRUpXJ--1" value="Props : they are used to pass data from a parent component down to a child component.&amp;nbsp; They are read-only in nature==&amp;gt; a child component cannot modify the props it receives from the parent. but parent will change it then child will get the update." style="rounded=1;whiteSpace=wrap;html=1;fontSize=21;fillColor=#f8cecc;strokeColor=#b85450;" parent="1" vertex="1">
                    <mxGeometry x="210" y="80" width="480" height="190" as="geometry"/>
                </mxCell>
                <mxCell id="o3wM9i1S2Ux85IRUpXJ--4" value="" style="edgeStyle=orthogonalEdgeStyle;rounded=0;orthogonalLoop=1;jettySize=auto;html=1;" parent="1" source="o3wM9i1S2Ux85IRUpXJ--2" target="o3wM9i1S2Ux85IRUpXJ--3" edge="1">
                    <mxGeometry relative="1" as="geometry"/>
                </mxCell>
                <mxCell id="o3wM9i1S2Ux85IRUpXJ--2" value="App(props)" style="rounded=1;whiteSpace=wrap;html=1;fontSize=22;" parent="1" vertex="1">
                    <mxGeometry x="370" y="360" width="120" height="60" as="geometry"/>
                </mxCell>
                <mxCell id="o3wM9i1S2Ux85IRUpXJ--6" value="" style="edgeStyle=orthogonalEdgeStyle;rounded=0;orthogonalLoop=1;jettySize=auto;html=1;" parent="1" source="o3wM9i1S2Ux85IRUpXJ--3" target="o3wM9i1S2Ux85IRUpXJ--5" edge="1">
                    <mxGeometry relative="1" as="geometry"/>
                </mxCell>
                <mxCell id="o3wM9i1S2Ux85IRUpXJ--3" value="Header" style="whiteSpace=wrap;html=1;fontSize=22;rounded=1;" parent="1" vertex="1">
                    <mxGeometry x="370" y="500" width="120" height="60" as="geometry"/>
                </mxCell>
                <mxCell id="o3wM9i1S2Ux85IRUpXJ--9" value="" style="edgeStyle=orthogonalEdgeStyle;rounded=0;orthogonalLoop=1;jettySize=auto;html=1;" parent="1" source="o3wM9i1S2Ux85IRUpXJ--5" target="o3wM9i1S2Ux85IRUpXJ--8" edge="1">
                    <mxGeometry relative="1" as="geometry"/>
                </mxCell>
                <mxCell id="o3wM9i1S2Ux85IRUpXJ--5" value="Test" style="whiteSpace=wrap;html=1;fontSize=22;rounded=1;" parent="1" vertex="1">
                    <mxGeometry x="370" y="640" width="120" height="60" as="geometry"/>
                </mxCell>
                <mxCell id="o3wM9i1S2Ux85IRUpXJ--7" value="Data @ central place ==&amp;gt; Store" style="rounded=1;whiteSpace=wrap;html=1;fontSize=19;" parent="1" vertex="1">
                    <mxGeometry x="50" y="420" width="300" height="40" as="geometry"/>
                </mxCell>
                <mxCell id="o3wM9i1S2Ux85IRUpXJ--8" value="Test2" style="whiteSpace=wrap;html=1;fontSize=22;rounded=1;" parent="1" vertex="1">
                    <mxGeometry x="370" y="780" width="120" height="60" as="geometry"/>
                </mxCell>
                <mxCell id="o3wM9i1S2Ux85IRUpXJ--12" value="" style="edgeStyle=orthogonalEdgeStyle;rounded=0;orthogonalLoop=1;jettySize=auto;html=1;" parent="1" source="o3wM9i1S2Ux85IRUpXJ--10" target="o3wM9i1S2Ux85IRUpXJ--11" edge="1">
                    <mxGeometry relative="1" as="geometry"/>
                </mxCell>
                <mxCell id="o3wM9i1S2Ux85IRUpXJ--10" value="class based component" style="rounded=1;whiteSpace=wrap;html=1;fontSize=21;" parent="1" vertex="1">
                    <mxGeometry x="300" y="940" width="230" height="60" as="geometry"/>
                </mxCell>
                <mxCell id="o3wM9i1S2Ux85IRUpXJ--11" value="RCC would be the parent , life cycle , states ==&amp;gt; class based compl" style="whiteSpace=wrap;html=1;fontSize=21;rounded=1;" parent="1" vertex="1">
                    <mxGeometry x="300" y="1070" width="237.5" height="90" as="geometry"/>
                </mxCell>
                <mxCell id="o3wM9i1S2Ux85IRUpXJ--13" value="16.8 version onwerds they give this facilitator y to Functional compomnent ." style="rounded=1;whiteSpace=wrap;html=1;fontSize=19;" parent="1" vertex="1">
                    <mxGeometry x="10" y="890" width="200" height="110" as="geometry"/>
                </mxCell>
            </root>
        </mxGraphModel>
    </diagram>
    <diagram id="NBSvFuVrw1tfSNTdDK4G" name="Page-6">
        <mxGraphModel dx="1494" dy="399" grid="1" gridSize="10" guides="1" tooltips="1" connect="1" arrows="1" fold="1" page="1" pageScale="1" pageWidth="850" pageHeight="1100" math="0" shadow="0">
            <root>
                <mxCell id="0"/>
                <mxCell id="1" parent="0"/>
                <mxCell id="La7_B_qwQN5Rx0iJgrqV-1" value="" style="rounded=1;whiteSpace=wrap;html=1;fontSize=21;" parent="1" vertex="1">
                    <mxGeometry x="260" y="120" width="500" height="270" as="geometry"/>
                </mxCell>
                <mxCell id="La7_B_qwQN5Rx0iJgrqV-2" value="auth/ user&amp;nbsp;" style="rounded=1;whiteSpace=wrap;html=1;" parent="1" vertex="1">
                    <mxGeometry x="280" y="290" width="80" height="60" as="geometry"/>
                </mxCell>
                <mxCell id="La7_B_qwQN5Rx0iJgrqV-4" value="" style="shape=flexArrow;endArrow=classic;html=1;rounded=0;width=16;endSize=6.67;" parent="1" edge="1">
                    <mxGeometry width="50" height="50" relative="1" as="geometry">
                        <mxPoint x="319.5" y="480" as="sourcePoint"/>
                        <mxPoint x="319.5" y="410" as="targetPoint"/>
                    </mxGeometry>
                </mxCell>
                <mxCell id="La7_B_qwQN5Rx0iJgrqV-5" value="profile" style="rounded=1;whiteSpace=wrap;html=1;" parent="1" vertex="1">
                    <mxGeometry x="280" y="190" width="80" height="60" as="geometry"/>
                </mxCell>
                <mxCell id="La7_B_qwQN5Rx0iJgrqV-6" value="order" style="rounded=1;whiteSpace=wrap;html=1;" parent="1" vertex="1">
                    <mxGeometry x="280" y="120" width="80" height="60" as="geometry"/>
                </mxCell>
                <mxCell id="La7_B_qwQN5Rx0iJgrqV-7" value="products" style="rounded=1;whiteSpace=wrap;html=1;" parent="1" vertex="1">
                    <mxGeometry x="385" y="130" width="80" height="60" as="geometry"/>
                </mxCell>
                <mxCell id="La7_B_qwQN5Rx0iJgrqV-8" value="payment" style="rounded=1;whiteSpace=wrap;html=1;" parent="1" vertex="1">
                    <mxGeometry x="490" y="130" width="80" height="60" as="geometry"/>
                </mxCell>
                <mxCell id="La7_B_qwQN5Rx0iJgrqV-9" value="" style="rounded=1;whiteSpace=wrap;html=1;" parent="1" vertex="1">
                    <mxGeometry x="600" y="130" width="80" height="60" as="geometry"/>
                </mxCell>
                <mxCell id="La7_B_qwQN5Rx0iJgrqV-19" value="" style="edgeStyle=orthogonalEdgeStyle;rounded=0;orthogonalLoop=1;jettySize=auto;html=1;" parent="1" source="La7_B_qwQN5Rx0iJgrqV-10" target="La7_B_qwQN5Rx0iJgrqV-18" edge="1">
                    <mxGeometry relative="1" as="geometry"/>
                </mxCell>
                <mxCell id="La7_B_qwQN5Rx0iJgrqV-10" value="" style="rounded=1;whiteSpace=wrap;html=1;" parent="1" vertex="1">
                    <mxGeometry x="170" y="600" width="480" height="210" as="geometry"/>
                </mxCell>
                <mxCell id="La7_B_qwQN5Rx0iJgrqV-11" value="store" style="text;html=1;align=center;verticalAlign=middle;whiteSpace=wrap;rounded=0;fontSize=18;fillColor=#dae8fc;strokeColor=#6c8ebf;" parent="1" vertex="1">
                    <mxGeometry x="190" y="610" width="60" height="30" as="geometry"/>
                </mxCell>
                <mxCell id="La7_B_qwQN5Rx0iJgrqV-12" value="auth : {user related info, token, authenticated status, }" style="rounded=1;whiteSpace=wrap;html=1;fontSize=17;" parent="1" vertex="1">
                    <mxGeometry x="180" y="675" width="140" height="105" as="geometry"/>
                </mxCell>
                <mxCell id="La7_B_qwQN5Rx0iJgrqV-15" value="post&amp;nbsp;" style="rounded=1;whiteSpace=wrap;html=1;" parent="1" vertex="1">
                    <mxGeometry x="520" y="620" width="100" height="30" as="geometry"/>
                </mxCell>
                <mxCell id="La7_B_qwQN5Rx0iJgrqV-16" value="Profie: current Profile, profiles(all profiles), [we will hold all profiles / profile deatilas along with exp adn edu details&amp;nbsp;" style="rounded=1;whiteSpace=wrap;html=1;fontSize=18;" parent="1" vertex="1">
                    <mxGeometry x="340" y="675" width="210" height="105" as="geometry"/>
                </mxCell>
                <mxCell id="La7_B_qwQN5Rx0iJgrqV-17" value="comments" style="rounded=1;whiteSpace=wrap;html=1;" parent="1" vertex="1">
                    <mxGeometry x="365" y="620" width="100" height="30" as="geometry"/>
                </mxCell>
                <mxCell id="La7_B_qwQN5Rx0iJgrqV-21" value="" style="edgeStyle=orthogonalEdgeStyle;rounded=0;orthogonalLoop=1;jettySize=auto;html=1;" parent="1" source="La7_B_qwQN5Rx0iJgrqV-18" target="La7_B_qwQN5Rx0iJgrqV-20" edge="1">
                    <mxGeometry relative="1" as="geometry">
                        <Array as="points">
                            <mxPoint x="920" y="1030"/>
                        </Array>
                    </mxGeometry>
                </mxCell>
                <mxCell id="La7_B_qwQN5Rx0iJgrqV-18" value="Component" style="whiteSpace=wrap;html=1;rounded=1;fontSize=20;" parent="1" vertex="1">
                    <mxGeometry x="860" y="860" width="120" height="60" as="geometry"/>
                </mxCell>
                <mxCell id="La7_B_qwQN5Rx0iJgrqV-23" value="" style="edgeStyle=orthogonalEdgeStyle;rounded=0;orthogonalLoop=1;jettySize=auto;html=1;" parent="1" source="La7_B_qwQN5Rx0iJgrqV-20" target="La7_B_qwQN5Rx0iJgrqV-22" edge="1">
                    <mxGeometry relative="1" as="geometry"/>
                </mxCell>
                <mxCell id="La7_B_qwQN5Rx0iJgrqV-34" style="edgeStyle=orthogonalEdgeStyle;rounded=0;orthogonalLoop=1;jettySize=auto;html=1;" parent="1" source="La7_B_qwQN5Rx0iJgrqV-20" target="La7_B_qwQN5Rx0iJgrqV-35" edge="1">
                    <mxGeometry relative="1" as="geometry">
                        <mxPoint x="50" y="870" as="targetPoint"/>
                    </mxGeometry>
                </mxCell>
                <mxCell id="La7_B_qwQN5Rx0iJgrqV-20" value="Actions" style="whiteSpace=wrap;html=1;fontSize=20;rounded=1;fillColor=#f8cecc;strokeColor=#b85450;" parent="1" vertex="1">
                    <mxGeometry x="400" y="1000" width="120" height="60" as="geometry"/>
                </mxCell>
                <mxCell id="La7_B_qwQN5Rx0iJgrqV-22" value="Rest calls/ CBL: common business logic" style="whiteSpace=wrap;html=1;fontSize=20;rounded=1;" parent="1" vertex="1">
                    <mxGeometry x="340" y="1140" width="240" height="60" as="geometry"/>
                </mxCell>
                <mxCell id="La7_B_qwQN5Rx0iJgrqV-24" value="useSelector" style="text;html=1;align=center;verticalAlign=middle;whiteSpace=wrap;rounded=0;fontSize=20;fillColor=#d5e8d4;strokeColor=#82b366;" parent="1" vertex="1">
                    <mxGeometry x="750" y="645" width="120" height="30" as="geometry"/>
                </mxCell>
                <mxCell id="La7_B_qwQN5Rx0iJgrqV-25" value="immutable" style="text;html=1;align=center;verticalAlign=middle;whiteSpace=wrap;rounded=0;fillColor=#dae8fc;strokeColor=#6c8ebf;fontSize=19;" parent="1" vertex="1">
                    <mxGeometry x="750" y="720" width="110" height="30" as="geometry"/>
                </mxCell>
                <mxCell id="La7_B_qwQN5Rx0iJgrqV-28" value="" style="edgeStyle=orthogonalEdgeStyle;rounded=0;orthogonalLoop=1;jettySize=auto;html=1;" parent="1" source="La7_B_qwQN5Rx0iJgrqV-26" target="La7_B_qwQN5Rx0iJgrqV-27" edge="1">
                    <mxGeometry relative="1" as="geometry"/>
                </mxCell>
                <mxCell id="La7_B_qwQN5Rx0iJgrqV-26" value="store" style="rounded=1;whiteSpace=wrap;html=1;" parent="1" vertex="1">
                    <mxGeometry x="370" y="1380" width="120" height="60" as="geometry"/>
                </mxCell>
                <mxCell id="La7_B_qwQN5Rx0iJgrqV-30" value="" style="edgeStyle=orthogonalEdgeStyle;rounded=0;orthogonalLoop=1;jettySize=auto;html=1;" parent="1" source="La7_B_qwQN5Rx0iJgrqV-27" target="La7_B_qwQN5Rx0iJgrqV-29" edge="1">
                    <mxGeometry relative="1" as="geometry"/>
                </mxCell>
                <mxCell id="La7_B_qwQN5Rx0iJgrqV-27" value="access to ur component" style="whiteSpace=wrap;html=1;rounded=1;" parent="1" vertex="1">
                    <mxGeometry x="570" y="1380" width="120" height="60" as="geometry"/>
                </mxCell>
                <mxCell id="La7_B_qwQN5Rx0iJgrqV-32" value="" style="edgeStyle=orthogonalEdgeStyle;rounded=0;orthogonalLoop=1;jettySize=auto;html=1;" parent="1" source="La7_B_qwQN5Rx0iJgrqV-29" target="La7_B_qwQN5Rx0iJgrqV-31" edge="1">
                    <mxGeometry relative="1" as="geometry">
                        <Array as="points">
                            <mxPoint x="870" y="1560"/>
                        </Array>
                    </mxGeometry>
                </mxCell>
                <mxCell id="La7_B_qwQN5Rx0iJgrqV-29" value="manipulate via actions" style="whiteSpace=wrap;html=1;rounded=1;" parent="1" vertex="1">
                    <mxGeometry x="770" y="1380" width="120" height="60" as="geometry"/>
                </mxCell>
                <mxCell id="La7_B_qwQN5Rx0iJgrqV-33" style="edgeStyle=orthogonalEdgeStyle;rounded=0;orthogonalLoop=1;jettySize=auto;html=1;" parent="1" source="La7_B_qwQN5Rx0iJgrqV-31" edge="1">
                    <mxGeometry relative="1" as="geometry">
                        <mxPoint x="440" y="1450" as="targetPoint"/>
                    </mxGeometry>
                </mxCell>
                <mxCell id="La7_B_qwQN5Rx0iJgrqV-31" value="update via reducer" style="whiteSpace=wrap;html=1;rounded=1;" parent="1" vertex="1">
                    <mxGeometry x="580" y="1530" width="120" height="60" as="geometry"/>
                </mxCell>
                <mxCell id="La7_B_qwQN5Rx0iJgrqV-35" value="Reducer : are responsible for manipulation / update in store" style="rounded=1;whiteSpace=wrap;html=1;fontSize=20;" parent="1" vertex="1">
                    <mxGeometry x="-100" y="840" width="290" height="60" as="geometry"/>
                </mxCell>
                <mxCell id="La7_B_qwQN5Rx0iJgrqV-36" style="edgeStyle=orthogonalEdgeStyle;rounded=0;orthogonalLoop=1;jettySize=auto;html=1;entryX=0.002;entryY=0.348;entryDx=0;entryDy=0;entryPerimeter=0;" parent="1" source="La7_B_qwQN5Rx0iJgrqV-35" target="La7_B_qwQN5Rx0iJgrqV-10" edge="1">
                    <mxGeometry relative="1" as="geometry"/>
                </mxCell>
                <mxCell id="La7_B_qwQN5Rx0iJgrqV-37" value="useDispatch" style="text;html=1;align=center;verticalAlign=middle;whiteSpace=wrap;rounded=0;fontSize=20;fillColor=#fff2cc;strokeColor=#d6b656;" parent="1" vertex="1">
                    <mxGeometry x="770" y="940" width="120" height="30" as="geometry"/>
                </mxCell>
                <mxCell id="La7_B_qwQN5Rx0iJgrqV-38" value="useDispatch : is a hook , to call actions&amp;nbsp;" style="text;html=1;align=center;verticalAlign=middle;whiteSpace=wrap;rounded=0;fontSize=19;fillColor=#ffe6cc;strokeColor=#d79b00;" parent="1" vertex="1">
                    <mxGeometry x="630" y="980" width="290" height="40" as="geometry"/>
                </mxCell>
                <mxCell id="La7_B_qwQN5Rx0iJgrqV-39" value="actions must return the data and will be returned directly to reducer implicitly" style="text;html=1;align=center;verticalAlign=middle;whiteSpace=wrap;rounded=0;fillColor=#dae8fc;strokeColor=#6c8ebf;fontSize=19;" parent="1" vertex="1">
                    <mxGeometry x="80" y="970" width="300" height="60" as="geometry"/>
                </mxCell>
                <mxCell id="La7_B_qwQN5Rx0iJgrqV-40" value="Slice : a slice is a redux toolkit (RTK) is a collection of state, reducers, actions.&lt;div&gt;state : its a part from ur store where ur specific module data will be managed.&lt;/div&gt;&lt;div&gt;reducers : how the state changes : it will update ur store accordingly.&lt;/div&gt;&lt;div&gt;actions : functions to make some changes as per the demand.&lt;/div&gt;&lt;div&gt;it is basically a modular piece of redux sture that groups logic for one feature / module like auth, cart, proifle .etc.&lt;/div&gt;&lt;div&gt;&lt;br&gt;&lt;/div&gt;" style="rounded=1;whiteSpace=wrap;html=1;fontSize=19;" parent="1" vertex="1">
                    <mxGeometry x="160" y="1660" width="700" height="240" as="geometry"/>
                </mxCell>
                <mxCell id="La7_B_qwQN5Rx0iJgrqV-43" value="" style="edgeStyle=orthogonalEdgeStyle;rounded=0;orthogonalLoop=1;jettySize=auto;html=1;" parent="1" source="La7_B_qwQN5Rx0iJgrqV-41" target="La7_B_qwQN5Rx0iJgrqV-42" edge="1">
                    <mxGeometry relative="1" as="geometry"/>
                </mxCell>
                <mxCell id="La7_B_qwQN5Rx0iJgrqV-45" value="" style="edgeStyle=orthogonalEdgeStyle;rounded=0;orthogonalLoop=1;jettySize=auto;html=1;" parent="1" source="La7_B_qwQN5Rx0iJgrqV-41" target="La7_B_qwQN5Rx0iJgrqV-44" edge="1">
                    <mxGeometry relative="1" as="geometry"/>
                </mxCell>
                <mxCell id="La7_B_qwQN5Rx0iJgrqV-41" value="Pending(initail state)" style="rounded=1;whiteSpace=wrap;html=1;fontSize=21;" parent="1" vertex="1">
                    <mxGeometry x="40" y="2040" width="230" height="40" as="geometry"/>
                </mxCell>
                <mxCell id="La7_B_qwQN5Rx0iJgrqV-42" value="success" style="whiteSpace=wrap;html=1;rounded=1;fontSize=21;" parent="1" vertex="1">
                    <mxGeometry x="305" y="2140" width="120" height="60" as="geometry"/>
                </mxCell>
                <mxCell id="La7_B_qwQN5Rx0iJgrqV-44" value="reject" style="whiteSpace=wrap;html=1;rounded=1;fontSize=21;" parent="1" vertex="1">
                    <mxGeometry x="-130" y="2140" width="120" height="60" as="geometry"/>
                </mxCell>
                <mxCell id="La7_B_qwQN5Rx0iJgrqV-48" style="edgeStyle=orthogonalEdgeStyle;rounded=0;orthogonalLoop=1;jettySize=auto;html=1;" parent="1" source="La7_B_qwQN5Rx0iJgrqV-46" edge="1">
                    <mxGeometry relative="1" as="geometry">
                        <mxPoint x="155" y="2030" as="targetPoint"/>
                    </mxGeometry>
                </mxCell>
                <mxCell id="La7_B_qwQN5Rx0iJgrqV-46" value="when we will perform the register user functionality" style="whiteSpace=wrap;html=1;fontSize=21;rounded=1;" parent="1" vertex="1">
                    <mxGeometry x="-17.5" y="1910" width="345" height="60" as="geometry"/>
                </mxCell>
                <mxCell id="La7_B_qwQN5Rx0iJgrqV-49" value="common phases for evry rest call" style="text;html=1;align=center;verticalAlign=middle;whiteSpace=wrap;rounded=0;fontSize=20;fillColor=#f8cecc;strokeColor=#b85450;" parent="1" vertex="1">
                    <mxGeometry x="70" y="2130" width="160" height="60" as="geometry"/>
                </mxCell>
                <mxCell id="r8C1bl4WtRMPwy2IPfgW-1" value="thunk or middleware" style="text;html=1;align=center;verticalAlign=middle;whiteSpace=wrap;rounded=0;fillColor=#dae8fc;strokeColor=#6c8ebf;fontSize=18;" parent="1" vertex="1">
                    <mxGeometry x="405" y="910" width="205" height="30" as="geometry"/>
                </mxCell>
                <mxCell id="asgP24u16mpTn7ScqZtx-1" value="" style="rounded=1;whiteSpace=wrap;html=1;" parent="1" vertex="1">
                    <mxGeometry x="630" y="200" width="120" height="90" as="geometry"/>
                </mxCell>
                <mxCell id="asgP24u16mpTn7ScqZtx-2" value="" style="rounded=1;whiteSpace=wrap;html=1;" parent="1" vertex="1">
                    <mxGeometry x="370" y="210" width="240" height="140" as="geometry"/>
                </mxCell>
                <mxCell id="asgP24u16mpTn7ScqZtx-3" value="" style="ellipse;whiteSpace=wrap;html=1;aspect=fixed;" parent="1" vertex="1">
                    <mxGeometry x="660" y="310" width="80" height="80" as="geometry"/>
                </mxCell>
                <mxCell id="asgP24u16mpTn7ScqZtx-4" value="RTK will help us&amp;nbsp;&lt;div&gt;Redux toolkit&amp;nbsp;&lt;/div&gt;" style="rounded=1;whiteSpace=wrap;html=1;" parent="1" vertex="1">
                    <mxGeometry x="30" y="190" width="120" height="60" as="geometry"/>
                </mxCell>
                <mxCell id="asgP24u16mpTn7ScqZtx-5" value="&lt;span style=&quot;color: rgb(248, 248, 242); font-family: SFMono-Regular, Menlo, Monaco, Consolas, &amp;quot;Liberation Mono&amp;quot;, &amp;quot;Courier New&amp;quot;, monospace; font-size: 16.15px; font-style: normal; font-variant-ligatures: normal; font-variant-caps: normal; font-weight: 400; letter-spacing: normal; orphans: 2; text-align: start; text-indent: 0px; text-transform: none; widows: 2; word-spacing: 0px; -webkit-text-stroke-width: 0px; white-space: pre; background-color: rgb(39, 40, 34); text-decoration-thickness: initial; text-decoration-style: initial; text-decoration-color: initial; float: none; display: inline !important;&quot;&gt;npm install react-redux&lt;/span&gt;&lt;div&gt;&lt;span style=&quot;color: rgb(248, 248, 242); font-family: SFMono-Regular, Menlo, Monaco, Consolas, &amp;quot;Liberation Mono&amp;quot;, &amp;quot;Courier New&amp;quot;, monospace; font-size: 16.15px; font-style: normal; font-variant-ligatures: normal; font-variant-caps: normal; font-weight: 400; letter-spacing: normal; orphans: 2; text-align: start; text-indent: 0px; text-transform: none; widows: 2; word-spacing: 0px; -webkit-text-stroke-width: 0px; white-space: pre; background-color: rgb(39, 40, 34); text-decoration-thickness: initial; text-decoration-style: initial; text-decoration-color: initial; float: none; display: inline !important;&quot;&gt;&lt;br&gt;&lt;/span&gt;&lt;/div&gt;&lt;div&gt;&lt;span style=&quot;color: rgb(248, 248, 242); font-family: SFMono-Regular, Menlo, Monaco, Consolas, &amp;quot;Liberation Mono&amp;quot;, &amp;quot;Courier New&amp;quot;, monospace; font-size: 16.15px; font-style: normal; font-variant-ligatures: normal; font-variant-caps: normal; font-weight: 400; letter-spacing: normal; orphans: 2; text-align: start; text-indent: 0px; text-transform: none; widows: 2; word-spacing: 0px; -webkit-text-stroke-width: 0px; white-space: pre; background-color: rgb(39, 40, 34); text-decoration-thickness: initial; text-decoration-style: initial; text-decoration-color: initial; float: none; display: inline !important;&quot;&gt;integrated lib which will allow&lt;/span&gt;&lt;/div&gt;&lt;div&gt;&lt;span style=&quot;color: rgb(248, 248, 242); font-family: SFMono-Regular, Menlo, Monaco, Consolas, &amp;quot;Liberation Mono&amp;quot;, &amp;quot;Courier New&amp;quot;, monospace; font-size: 16.15px; font-style: normal; font-variant-ligatures: normal; font-variant-caps: normal; font-weight: 400; letter-spacing: normal; orphans: 2; text-align: start; text-indent: 0px; text-transform: none; widows: 2; word-spacing: 0px; -webkit-text-stroke-width: 0px; white-space: pre; background-color: rgb(39, 40, 34); text-decoration-thickness: initial; text-decoration-style: initial; text-decoration-color: initial; float: none; display: inline !important;&quot;&gt; us to use redux in react &lt;/span&gt;&lt;/div&gt;&lt;div&gt;&lt;span style=&quot;color: rgb(248, 248, 242); font-family: SFMono-Regular, Menlo, Monaco, Consolas, &amp;quot;Liberation Mono&amp;quot;, &amp;quot;Courier New&amp;quot;, monospace; font-size: 16.15px; font-style: normal; font-variant-ligatures: normal; font-variant-caps: normal; font-weight: 400; letter-spacing: normal; orphans: 2; text-align: start; text-indent: 0px; text-transform: none; widows: 2; word-spacing: 0px; -webkit-text-stroke-width: 0px; white-space: pre; background-color: rgb(39, 40, 34); text-decoration-thickness: initial; text-decoration-style: initial; text-decoration-color: initial; float: none; display: inline !important;&quot;&gt;application.&lt;/span&gt;&lt;/div&gt;" style="rounded=1;whiteSpace=wrap;html=1;" parent="1" vertex="1">
                    <mxGeometry x="-70" y="280" width="310" height="160" as="geometry"/>
                </mxCell>
                <mxCell id="asgP24u16mpTn7ScqZtx-6" value="npm install @reduxjs/toolkit&lt;div&gt;&lt;br&gt;&lt;/div&gt;&lt;div&gt;this package is dedicated to manage ur centralized store / location where we can hold the data centrally.&lt;/div&gt;" style="rounded=1;whiteSpace=wrap;html=1;" parent="1" vertex="1">
                    <mxGeometry x="10" y="460" width="250" height="70" as="geometry"/>
                </mxCell>
            </root>
        </mxGraphModel>
    </diagram>
    <diagram id="iTWHDnNER3uS501Zqkl7" name="Page-7">
        <mxGraphModel dx="644" dy="261" grid="1" gridSize="10" guides="1" tooltips="1" connect="1" arrows="1" fold="1" page="1" pageScale="1" pageWidth="850" pageHeight="1100" math="0" shadow="0">
            <root>
                <mxCell id="0"/>
                <mxCell id="1" parent="0"/>
                <mxCell id="OgkFP1i1izmdDJvhcouA-1" value="Click &quot;Register&quot; (Place Order)&#xa;        |&#xa;        v&#xa;Pending --------------------&gt; status = &quot;loading&quot;&#xa;(App shows &quot;Please wait...&quot;)&#xa;        |&#xa;        v&#xa;Fulfilled -----------------&gt; status = &quot;succeeded&quot;&#xa;(Food delivered, save receipt → user+token stored)&#xa;        |&#xa;        OR&#xa;        v&#xa;Rejected ------------------&gt; status = &quot;failed&quot;&#xa;(Order failed, show error message)" style="text;whiteSpace=wrap;fontSize=22;" parent="1" vertex="1">
                    <mxGeometry x="200" y="250" width="530" height="460" as="geometry"/>
                </mxCell>
            </root>
        </mxGraphModel>
    </diagram>
    <diagram id="pAIPVXz6_eL83BOwXMI6" name="Page-8">
        <mxGraphModel dx="1495" dy="399" grid="1" gridSize="10" guides="1" tooltips="1" connect="1" arrows="1" fold="1" page="1" pageScale="1" pageWidth="850" pageHeight="1100" math="0" shadow="0">
            <root>
                <mxCell id="0"/>
                <mxCell id="1" parent="0"/>
                <mxCell id="Jo_tYI3QxxW1ygZHs0Fo-3" value="" style="edgeStyle=orthogonalEdgeStyle;rounded=0;orthogonalLoop=1;jettySize=auto;html=1;" parent="1" source="Jo_tYI3QxxW1ygZHs0Fo-1" target="Jo_tYI3QxxW1ygZHs0Fo-2" edge="1">
                    <mxGeometry relative="1" as="geometry"/>
                </mxCell>
                <mxCell id="Jo_tYI3QxxW1ygZHs0Fo-1" value="Fill Form for registration" style="rounded=1;whiteSpace=wrap;html=1;fontSize=19;" parent="1" vertex="1">
                    <mxGeometry x="310" y="110" width="170" height="70" as="geometry"/>
                </mxCell>
                <mxCell id="Jo_tYI3QxxW1ygZHs0Fo-5" value="" style="edgeStyle=orthogonalEdgeStyle;rounded=0;orthogonalLoop=1;jettySize=auto;html=1;" parent="1" source="Jo_tYI3QxxW1ygZHs0Fo-2" target="Jo_tYI3QxxW1ygZHs0Fo-4" edge="1">
                    <mxGeometry relative="1" as="geometry"/>
                </mxCell>
                <mxCell id="Jo_tYI3QxxW1ygZHs0Fo-2" value="on submit : registerUserAction i.e. RTK createasyncthunk" style="whiteSpace=wrap;html=1;fontSize=19;rounded=1;" parent="1" vertex="1">
                    <mxGeometry x="262.5" y="270" width="265" height="60" as="geometry"/>
                </mxCell>
                <mxCell id="Jo_tYI3QxxW1ygZHs0Fo-7" value="" style="edgeStyle=orthogonalEdgeStyle;rounded=0;orthogonalLoop=1;jettySize=auto;html=1;" parent="1" source="Jo_tYI3QxxW1ygZHs0Fo-4" target="Jo_tYI3QxxW1ygZHs0Fo-6" edge="1">
                    <mxGeometry relative="1" as="geometry"/>
                </mxCell>
                <mxCell id="Jo_tYI3QxxW1ygZHs0Fo-4" value="thunk runs :&amp;nbsp;&lt;div&gt;1. pending&lt;/div&gt;&lt;div&gt;2. success: fulfilled&amp;nbsp;&lt;/div&gt;&lt;div&gt;3. failure:&lt;/div&gt;" style="whiteSpace=wrap;html=1;fontSize=19;rounded=1;" parent="1" vertex="1">
                    <mxGeometry x="292.5" y="410" width="205" height="100" as="geometry"/>
                </mxCell>
                <mxCell id="Jo_tYI3QxxW1ygZHs0Fo-9" value="" style="edgeStyle=orthogonalEdgeStyle;rounded=0;orthogonalLoop=1;jettySize=auto;html=1;" parent="1" source="Jo_tYI3QxxW1ygZHs0Fo-6" target="Jo_tYI3QxxW1ygZHs0Fo-8" edge="1">
                    <mxGeometry relative="1" as="geometry"/>
                </mxCell>
                <mxCell id="Jo_tYI3QxxW1ygZHs0Fo-6" value="authSlicer :&amp;nbsp;&lt;div&gt;pending:&lt;/div&gt;&lt;div&gt;fulfilled: store toekn, isAtuhent.....&lt;/div&gt;&lt;div&gt;rejected:&lt;/div&gt;" style="whiteSpace=wrap;html=1;fontSize=19;rounded=1;" parent="1" vertex="1">
                    <mxGeometry x="307.5" y="590" width="175" height="150" as="geometry"/>
                </mxCell>
                <mxCell id="Jo_tYI3QxxW1ygZHs0Fo-11" value="" style="edgeStyle=orthogonalEdgeStyle;rounded=0;orthogonalLoop=1;jettySize=auto;html=1;" parent="1" source="Jo_tYI3QxxW1ygZHs0Fo-8" target="Jo_tYI3QxxW1ygZHs0Fo-10" edge="1">
                    <mxGeometry relative="1" as="geometry"/>
                </mxCell>
                <mxCell id="Jo_tYI3QxxW1ygZHs0Fo-8" value="for this when it will see that action stream is matched with registerUser.fulfilled :&amp;nbsp;" style="whiteSpace=wrap;html=1;fontSize=19;rounded=1;" parent="1" vertex="1">
                    <mxGeometry x="292.5" y="800" width="205" height="150" as="geometry"/>
                </mxCell>
                <mxCell id="Jo_tYI3QxxW1ygZHs0Fo-13" value="" style="edgeStyle=orthogonalEdgeStyle;rounded=0;orthogonalLoop=1;jettySize=auto;html=1;" parent="1" source="Jo_tYI3QxxW1ygZHs0Fo-10" target="Jo_tYI3QxxW1ygZHs0Fo-12" edge="1">
                    <mxGeometry relative="1" as="geometry"/>
                </mxCell>
                <mxCell id="Jo_tYI3QxxW1ygZHs0Fo-10" value="then the listner will be called.==&amp;gt; navigate" style="whiteSpace=wrap;html=1;fontSize=19;rounded=1;" parent="1" vertex="1">
                    <mxGeometry x="282.5" y="1060" width="225" height="60" as="geometry"/>
                </mxCell>
                <mxCell id="Jo_tYI3QxxW1ygZHs0Fo-12" value="activate it for navigate : we have to call somewhere =&amp;gt; bootstraplistner component." style="whiteSpace=wrap;html=1;fontSize=19;rounded=1;" parent="1" vertex="1">
                    <mxGeometry x="-50" y="1020" width="200" height="140" as="geometry"/>
                </mxCell>
            </root>
        </mxGraphModel>
    </diagram>
    <diagram id="CZJ0ohNplcMcJWMf27S6" name="dashboard">
        <mxGraphModel dx="1494" dy="261" grid="1" gridSize="10" guides="1" tooltips="1" connect="1" arrows="1" fold="1" page="1" pageScale="1" pageWidth="850" pageHeight="1100" math="0" shadow="0">
            <root>
                <mxCell id="0"/>
                <mxCell id="1" parent="0"/>
                <mxCell id="2spyMie-ga2L4lR_ypaL-3" value="" style="edgeStyle=orthogonalEdgeStyle;rounded=0;orthogonalLoop=1;jettySize=auto;html=1;" parent="1" source="2spyMie-ga2L4lR_ypaL-1" edge="1">
                    <mxGeometry relative="1" as="geometry">
                        <mxPoint x="420" y="180" as="targetPoint"/>
                    </mxGeometry>
                </mxCell>
                <mxCell id="2spyMie-ga2L4lR_ypaL-1" value="Dashboard" style="rounded=1;whiteSpace=wrap;html=1;" parent="1" vertex="1">
                    <mxGeometry x="360" y="40" width="120" height="60" as="geometry"/>
                </mxCell>
                <mxCell id="2spyMie-ga2L4lR_ypaL-8" value="" style="edgeStyle=orthogonalEdgeStyle;rounded=0;orthogonalLoop=1;jettySize=auto;html=1;" parent="1" source="2spyMie-ga2L4lR_ypaL-6" target="2spyMie-ga2L4lR_ypaL-7" edge="1">
                    <mxGeometry relative="1" as="geometry"/>
                </mxCell>
                <mxCell id="2spyMie-ga2L4lR_ypaL-14" value="" style="edgeStyle=orthogonalEdgeStyle;rounded=0;orthogonalLoop=1;jettySize=auto;html=1;" parent="1" source="2spyMie-ga2L4lR_ypaL-6" target="2spyMie-ga2L4lR_ypaL-13" edge="1">
                    <mxGeometry relative="1" as="geometry"/>
                </mxCell>
                <mxCell id="2spyMie-ga2L4lR_ypaL-6" value="&lt;span style=&quot;font-size: 18px;&quot;&gt;it has to render few details from user profile&amp;nbsp;&lt;/span&gt;" style="rhombus;whiteSpace=wrap;html=1;" parent="1" vertex="1">
                    <mxGeometry x="225" y="180" width="390" height="220" as="geometry"/>
                </mxCell>
                <mxCell id="2spyMie-ga2L4lR_ypaL-7" value="then we want to see the exp details, edu details and 3 buttons for edit profile, add exp , add edu" style="whiteSpace=wrap;html=1;fontSize=21;fillColor=#d5e8d4;strokeColor=#82b366;" parent="1" vertex="1">
                    <mxGeometry x="-60" y="420" width="240" height="160" as="geometry"/>
                </mxCell>
                <mxCell id="2spyMie-ga2L4lR_ypaL-9" value="u have user profile" style="text;html=1;align=center;verticalAlign=middle;whiteSpace=wrap;rounded=0;fontSize=22;" parent="1" vertex="1">
                    <mxGeometry x="20" y="240" width="170" height="40" as="geometry"/>
                </mxCell>
                <mxCell id="2spyMie-ga2L4lR_ypaL-16" value="" style="edgeStyle=orthogonalEdgeStyle;rounded=0;orthogonalLoop=1;jettySize=auto;html=1;" parent="1" source="2spyMie-ga2L4lR_ypaL-10" target="2spyMie-ga2L4lR_ypaL-15" edge="1">
                    <mxGeometry relative="1" as="geometry"/>
                </mxCell>
                <mxCell id="2spyMie-ga2L4lR_ypaL-10" value="u don&#39;t&amp;nbsp; have user profile" style="text;html=1;align=center;verticalAlign=middle;whiteSpace=wrap;rounded=0;fontSize=18;" parent="1" vertex="1">
                    <mxGeometry x="680" y="240" width="190" height="40" as="geometry"/>
                </mxCell>
                <mxCell id="2spyMie-ga2L4lR_ypaL-13" value="we should see the create profile button" style="whiteSpace=wrap;html=1;fontSize=18;fillColor=#f8cecc;strokeColor=#b85450;" parent="1" vertex="1">
                    <mxGeometry x="740" y="420" width="190" height="80" as="geometry"/>
                </mxCell>
                <mxCell id="2spyMie-ga2L4lR_ypaL-18" value="" style="edgeStyle=orthogonalEdgeStyle;rounded=0;orthogonalLoop=1;jettySize=auto;html=1;" parent="1" source="2spyMie-ga2L4lR_ypaL-15" target="2spyMie-ga2L4lR_ypaL-17" edge="1">
                    <mxGeometry relative="1" as="geometry"/>
                </mxCell>
                <mxCell id="2spyMie-ga2L4lR_ypaL-15" value="checking the user profile on the basis of token" style="whiteSpace=wrap;html=1;" parent="1" vertex="1">
                    <mxGeometry x="715" y="110" width="120" height="60" as="geometry"/>
                </mxCell>
                <mxCell id="2spyMie-ga2L4lR_ypaL-17" value="we need to perform a&amp;nbsp; rest call /api/profile/me" style="whiteSpace=wrap;html=1;fontSize=17;" parent="1" vertex="1">
                    <mxGeometry x="915" y="110" width="215" height="60" as="geometry"/>
                </mxCell>
                <mxCell id="2spyMie-ga2L4lR_ypaL-21" value="" style="edgeStyle=orthogonalEdgeStyle;rounded=0;orthogonalLoop=1;jettySize=auto;html=1;" parent="1" source="2spyMie-ga2L4lR_ypaL-19" target="2spyMie-ga2L4lR_ypaL-20" edge="1">
                    <mxGeometry relative="1" as="geometry"/>
                </mxCell>
                <mxCell id="2spyMie-ga2L4lR_ypaL-19" value="after login / register&amp;nbsp;" style="rounded=1;whiteSpace=wrap;html=1;fontSize=18;fillColor=#dae8fc;strokeColor=#6c8ebf;" parent="1" vertex="1">
                    <mxGeometry x="305" y="600" width="120" height="60" as="geometry"/>
                </mxCell>
                <mxCell id="2spyMie-ga2L4lR_ypaL-20" value="any rest call needs token .&amp;nbsp; it has to be added implicitly by axios" style="whiteSpace=wrap;html=1;fontSize=18;fillColor=#dae8fc;strokeColor=#6c8ebf;rounded=1;" parent="1" vertex="1">
                    <mxGeometry x="227.5" y="750" width="275" height="60" as="geometry"/>
                </mxCell>
            </root>
        </mxGraphModel>
    </diagram>
    <diagram id="9EQ3wKQdINnRXzeBOpom" name="Page-10">
        <mxGraphModel dx="644" dy="261" grid="1" gridSize="10" guides="1" tooltips="1" connect="1" arrows="1" fold="1" page="1" pageScale="1" pageWidth="850" pageHeight="1100" math="0" shadow="0">
            <root>
                <mxCell id="0"/>
                <mxCell id="1" parent="0"/>
                <mxCell id="J0JpK37IRiFCVqLxxPUN-3" value="" style="edgeStyle=orthogonalEdgeStyle;rounded=0;orthogonalLoop=1;jettySize=auto;html=1;" parent="1" source="J0JpK37IRiFCVqLxxPUN-1" target="J0JpK37IRiFCVqLxxPUN-2" edge="1">
                    <mxGeometry relative="1" as="geometry"/>
                </mxCell>
                <mxCell id="J0JpK37IRiFCVqLxxPUN-1" value="once the profile is created" style="rounded=1;whiteSpace=wrap;html=1;fontSize=21;" parent="1" vertex="1">
                    <mxGeometry x="280" y="120" width="280" height="60" as="geometry"/>
                </mxCell>
                <mxCell id="J0JpK37IRiFCVqLxxPUN-7" value="" style="edgeStyle=orthogonalEdgeStyle;rounded=0;orthogonalLoop=1;jettySize=auto;html=1;" parent="1" source="J0JpK37IRiFCVqLxxPUN-2" target="J0JpK37IRiFCVqLxxPUN-6" edge="1">
                    <mxGeometry relative="1" as="geometry"/>
                </mxCell>
                <mxCell id="J0JpK37IRiFCVqLxxPUN-2" value="it should take me to the dashboard" style="whiteSpace=wrap;html=1;fontSize=21;rounded=1;" parent="1" vertex="1">
                    <mxGeometry x="250" y="250" width="340" height="130" as="geometry"/>
                </mxCell>
                <mxCell id="J0JpK37IRiFCVqLxxPUN-9" value="" style="edgeStyle=orthogonalEdgeStyle;rounded=0;orthogonalLoop=1;jettySize=auto;html=1;" parent="1" source="J0JpK37IRiFCVqLxxPUN-6" target="J0JpK37IRiFCVqLxxPUN-8" edge="1">
                    <mxGeometry relative="1" as="geometry"/>
                </mxCell>
                <mxCell id="J0JpK37IRiFCVqLxxPUN-6" value="by default will it check the profile existance&amp;nbsp;" style="whiteSpace=wrap;html=1;fontSize=21;rounded=1;" parent="1" vertex="1">
                    <mxGeometry x="310" y="495" width="220" height="95" as="geometry"/>
                </mxCell>
                <mxCell id="J0JpK37IRiFCVqLxxPUN-8" value="edit profile and add exp , show Profile" style="whiteSpace=wrap;html=1;fontSize=21;rounded=1;" parent="1" vertex="1">
                    <mxGeometry x="310" y="687.5" width="220" height="60" as="geometry"/>
                </mxCell>
                <mxCell id="J0JpK37IRiFCVqLxxPUN-12" value="" style="edgeStyle=orthogonalEdgeStyle;rounded=0;orthogonalLoop=1;jettySize=auto;html=1;" parent="1" source="J0JpK37IRiFCVqLxxPUN-10" target="J0JpK37IRiFCVqLxxPUN-11" edge="1">
                    <mxGeometry relative="1" as="geometry"/>
                </mxCell>
                <mxCell id="J0JpK37IRiFCVqLxxPUN-10" value="read the data from store" style="rounded=1;whiteSpace=wrap;html=1;" parent="1" vertex="1">
                    <mxGeometry x="220" y="880" width="120" height="60" as="geometry"/>
                </mxCell>
                <mxCell id="J0JpK37IRiFCVqLxxPUN-14" value="" style="edgeStyle=orthogonalEdgeStyle;rounded=0;orthogonalLoop=1;jettySize=auto;html=1;" parent="1" source="J0JpK37IRiFCVqLxxPUN-11" target="J0JpK37IRiFCVqLxxPUN-13" edge="1">
                    <mxGeometry relative="1" as="geometry"/>
                </mxCell>
                <mxCell id="J0JpK37IRiFCVqLxxPUN-11" value="we wwill hold it in state" style="whiteSpace=wrap;html=1;rounded=1;" parent="1" vertex="1">
                    <mxGeometry x="420" y="880" width="120" height="60" as="geometry"/>
                </mxCell>
                <mxCell id="J0JpK37IRiFCVqLxxPUN-13" value="render it to the UI via form fields" style="whiteSpace=wrap;html=1;rounded=1;" parent="1" vertex="1">
                    <mxGeometry x="620" y="880" width="120" height="60" as="geometry"/>
                </mxCell>
            </root>
        </mxGraphModel>
    </diagram>
    <diagram id="gbgouwAxWgcVci5zsDKc" name="Page-11">
        <mxGraphModel dx="644" dy="261" grid="1" gridSize="10" guides="1" tooltips="1" connect="1" arrows="1" fold="1" page="1" pageScale="1" pageWidth="850" pageHeight="1100" math="0" shadow="0">
            <root>
                <mxCell id="0"/>
                <mxCell id="1" parent="0"/>
                <mxCell id="K4p61wDM-8ETFgD8slhH-3" value="" style="edgeStyle=none;html=1;" parent="1" source="K4p61wDM-8ETFgD8slhH-1" target="K4p61wDM-8ETFgD8slhH-2" edge="1">
                    <mxGeometry relative="1" as="geometry"/>
                </mxCell>
                <mxCell id="K4p61wDM-8ETFgD8slhH-1" value="React" style="rounded=1;whiteSpace=wrap;html=1;" parent="1" vertex="1">
                    <mxGeometry x="130" y="80" width="120" height="60" as="geometry"/>
                </mxCell>
                <mxCell id="K4p61wDM-8ETFgD8slhH-2" value="Index.html&lt;div&gt;(div id=root)&lt;/div&gt;" style="whiteSpace=wrap;html=1;rounded=1;" parent="1" vertex="1">
                    <mxGeometry x="331" y="80" width="120" height="60" as="geometry"/>
                </mxCell>
                <mxCell id="K4p61wDM-8ETFgD8slhH-4" value="it will consider a root from the React side i.e. entry for ur VDOM" style="text;html=1;align=center;verticalAlign=middle;whiteSpace=wrap;rounded=0;fillColor=#f8cecc;strokeColor=#b85450;fontStyle=1" parent="1" vertex="1">
                    <mxGeometry x="230" y="140" width="130" height="90" as="geometry"/>
                </mxCell>
            </root>
        </mxGraphModel>
    </diagram>
    <diagram id="QweqTjelIEoyZU8t9Ccm" name="Page-12">
        <mxGraphModel dx="644" dy="261" grid="1" gridSize="10" guides="1" tooltips="1" connect="1" arrows="1" fold="1" page="1" pageScale="1" pageWidth="850" pageHeight="1100" math="0" shadow="0">
            <root>
                <mxCell id="0"/>
                <mxCell id="1" parent="0"/>
                <mxCell id="n7mjbyDmZqHD00Z8V-FC-1" value="" style="rounded=1;whiteSpace=wrap;html=1;" parent="1" vertex="1">
                    <mxGeometry x="110" y="30" width="260" height="270" as="geometry"/>
                </mxCell>
                <mxCell id="n7mjbyDmZqHD00Z8V-FC-2" value="home Page" style="text;html=1;align=center;verticalAlign=middle;whiteSpace=wrap;rounded=0;fillColor=#fff2cc;strokeColor=#d6b656;" parent="1" vertex="1">
                    <mxGeometry x="50" y="40" width="60" height="30" as="geometry"/>
                </mxCell>
                <mxCell id="n7mjbyDmZqHD00Z8V-FC-3" value="Header" style="rounded=1;whiteSpace=wrap;html=1;" parent="1" vertex="1">
                    <mxGeometry x="140" y="40" width="210" height="60" as="geometry"/>
                </mxCell>
                <mxCell id="n7mjbyDmZqHD00Z8V-FC-4" value="Landing" style="rounded=1;whiteSpace=wrap;html=1;" parent="1" vertex="1">
                    <mxGeometry x="135" y="130" width="210" height="60" as="geometry"/>
                </mxCell>
                <mxCell id="n7mjbyDmZqHD00Z8V-FC-5" value="Footer" style="rounded=1;whiteSpace=wrap;html=1;" parent="1" vertex="1">
                    <mxGeometry x="140" y="210" width="210" height="60" as="geometry"/>
                </mxCell>
            </root>
        </mxGraphModel>
    </diagram>
    <diagram id="IiLUVFuLZ7Mhx11dthrW" name="Page-13">
        <mxGraphModel dx="1494" dy="261" grid="1" gridSize="10" guides="1" tooltips="1" connect="1" arrows="1" fold="1" page="1" pageScale="1" pageWidth="850" pageHeight="1100" math="0" shadow="0">
            <root>
                <mxCell id="0"/>
                <mxCell id="1" parent="0"/>
                <mxCell id="7g13Kdc5cef0hehWBGx8-3" value="" style="edgeStyle=none;html=1;" parent="1" source="7g13Kdc5cef0hehWBGx8-1" target="7g13Kdc5cef0hehWBGx8-2" edge="1">
                    <mxGeometry relative="1" as="geometry"/>
                </mxCell>
                <mxCell id="7g13Kdc5cef0hehWBGx8-1" value="when we will click on login / register it must render the respecitve component." style="rounded=1;whiteSpace=wrap;html=1;" parent="1" vertex="1">
                    <mxGeometry x="120" y="90" width="120" height="60" as="geometry"/>
                </mxCell>
                <mxCell id="7g13Kdc5cef0hehWBGx8-2" value="Runtime" style="whiteSpace=wrap;html=1;rounded=1;" parent="1" vertex="1">
                    <mxGeometry x="120" y="230" width="120" height="60" as="geometry"/>
                </mxCell>
                <mxCell id="7g13Kdc5cef0hehWBGx8-4" value="react router." style="text;html=1;align=center;verticalAlign=middle;whiteSpace=wrap;rounded=0;" parent="1" vertex="1">
                    <mxGeometry x="60" y="170" width="60" height="30" as="geometry"/>
                </mxCell>
                <mxCell id="MRK0rCwPvkTwzeyh7fdD-1" value="auth" style="rounded=1;whiteSpace=wrap;html=1;" parent="1" vertex="1">
                    <mxGeometry x="230" y="330" width="120" height="60" as="geometry"/>
                </mxCell>
                <mxCell id="MRK0rCwPvkTwzeyh7fdD-8" value="" style="edgeStyle=none;html=1;" parent="1" source="MRK0rCwPvkTwzeyh7fdD-2" target="MRK0rCwPvkTwzeyh7fdD-7" edge="1">
                    <mxGeometry relative="1" as="geometry"/>
                </mxCell>
                <mxCell id="MRK0rCwPvkTwzeyh7fdD-9" value="" style="edgeStyle=none;html=1;" parent="1" source="MRK0rCwPvkTwzeyh7fdD-2" target="MRK0rCwPvkTwzeyh7fdD-7" edge="1">
                    <mxGeometry relative="1" as="geometry"/>
                </mxCell>
                <mxCell id="MRK0rCwPvkTwzeyh7fdD-11" value="" style="edgeStyle=none;html=1;" parent="1" source="MRK0rCwPvkTwzeyh7fdD-2" target="MRK0rCwPvkTwzeyh7fdD-10" edge="1">
                    <mxGeometry relative="1" as="geometry"/>
                </mxCell>
                <mxCell id="MRK0rCwPvkTwzeyh7fdD-2" value="profile profile router will hav m1 and m2" style="rounded=1;whiteSpace=wrap;html=1;" parent="1" vertex="1">
                    <mxGeometry x="230" y="410" width="120" height="60" as="geometry"/>
                </mxCell>
                <mxCell id="MRK0rCwPvkTwzeyh7fdD-3" value="post" style="rounded=1;whiteSpace=wrap;html=1;" parent="1" vertex="1">
                    <mxGeometry x="230" y="500" width="120" height="60" as="geometry"/>
                </mxCell>
                <mxCell id="MRK0rCwPvkTwzeyh7fdD-6" style="edgeStyle=none;html=1;" parent="1" source="MRK0rCwPvkTwzeyh7fdD-4" edge="1">
                    <mxGeometry relative="1" as="geometry">
                        <mxPoint x="570" y="420" as="targetPoint"/>
                    </mxGeometry>
                </mxCell>
                <mxCell id="MRK0rCwPvkTwzeyh7fdD-4" value="every module will have its own router" style="text;html=1;align=center;verticalAlign=middle;whiteSpace=wrap;rounded=0;" parent="1" vertex="1">
                    <mxGeometry x="395" y="350" width="60" height="140" as="geometry"/>
                </mxCell>
                <mxCell id="MRK0rCwPvkTwzeyh7fdD-5" value="RootRouter" style="text;html=1;align=center;verticalAlign=middle;whiteSpace=wrap;rounded=0;" parent="1" vertex="1">
                    <mxGeometry x="580" y="400" width="60" height="30" as="geometry"/>
                </mxCell>
                <mxCell id="MRK0rCwPvkTwzeyh7fdD-15" value="" style="edgeStyle=none;html=1;" parent="1" source="MRK0rCwPvkTwzeyh7fdD-7" target="MRK0rCwPvkTwzeyh7fdD-14" edge="1">
                    <mxGeometry relative="1" as="geometry"/>
                </mxCell>
                <mxCell id="MRK0rCwPvkTwzeyh7fdD-7" value="M1" style="whiteSpace=wrap;html=1;rounded=1;" parent="1" vertex="1">
                    <mxGeometry x="30" y="500" width="120" height="60" as="geometry"/>
                </mxCell>
                <mxCell id="MRK0rCwPvkTwzeyh7fdD-13" value="" style="edgeStyle=none;html=1;" parent="1" source="MRK0rCwPvkTwzeyh7fdD-10" target="MRK0rCwPvkTwzeyh7fdD-12" edge="1">
                    <mxGeometry relative="1" as="geometry"/>
                </mxCell>
                <mxCell id="MRK0rCwPvkTwzeyh7fdD-10" value="M2" style="whiteSpace=wrap;html=1;rounded=1;" parent="1" vertex="1">
                    <mxGeometry x="30" y="410" width="120" height="60" as="geometry"/>
                </mxCell>
                <mxCell id="MRK0rCwPvkTwzeyh7fdD-12" value="module routers" style="whiteSpace=wrap;html=1;rounded=1;" parent="1" vertex="1">
                    <mxGeometry x="-170" y="410" width="120" height="60" as="geometry"/>
                </mxCell>
                <mxCell id="MRK0rCwPvkTwzeyh7fdD-14" value="modulerouter" style="whiteSpace=wrap;html=1;rounded=1;" parent="1" vertex="1">
                    <mxGeometry x="-170" y="500" width="120" height="60" as="geometry"/>
                </mxCell>
                <mxCell id="MRK0rCwPvkTwzeyh7fdD-18" value="" style="edgeStyle=none;html=1;" parent="1" source="MRK0rCwPvkTwzeyh7fdD-16" target="MRK0rCwPvkTwzeyh7fdD-17" edge="1">
                    <mxGeometry relative="1" as="geometry"/>
                </mxCell>
                <mxCell id="MRK0rCwPvkTwzeyh7fdD-16" value="all ur modules router" style="rounded=1;whiteSpace=wrap;html=1;" parent="1" vertex="1">
                    <mxGeometry x="170" y="610" width="120" height="60" as="geometry"/>
                </mxCell>
                <mxCell id="MRK0rCwPvkTwzeyh7fdD-20" value="" style="edgeStyle=none;html=1;" parent="1" source="MRK0rCwPvkTwzeyh7fdD-17" target="MRK0rCwPvkTwzeyh7fdD-19" edge="1">
                    <mxGeometry relative="1" as="geometry"/>
                </mxCell>
                <mxCell id="MRK0rCwPvkTwzeyh7fdD-17" value="rootrouter" style="whiteSpace=wrap;html=1;rounded=1;" parent="1" vertex="1">
                    <mxGeometry x="370" y="610" width="120" height="60" as="geometry"/>
                </mxCell>
                <mxCell id="MRK0rCwPvkTwzeyh7fdD-19" value="will be added into app.jsx" style="whiteSpace=wrap;html=1;rounded=1;" parent="1" vertex="1">
                    <mxGeometry x="570" y="610" width="120" height="60" as="geometry"/>
                </mxCell>
                <mxCell id="MRK0rCwPvkTwzeyh7fdD-23" value="" style="edgeStyle=none;html=1;" parent="1" source="MRK0rCwPvkTwzeyh7fdD-21" target="MRK0rCwPvkTwzeyh7fdD-22" edge="1">
                    <mxGeometry relative="1" as="geometry"/>
                </mxCell>
                <mxCell id="MRK0rCwPvkTwzeyh7fdD-21" value="react-router-dom" style="rounded=1;whiteSpace=wrap;html=1;" parent="1" vertex="1">
                    <mxGeometry x="410" y="690" width="120" height="60" as="geometry"/>
                </mxCell>
                <mxCell id="MRK0rCwPvkTwzeyh7fdD-22" value="dynamic changes has to be updated with ur VDOM ?&amp;nbsp;" style="whiteSpace=wrap;html=1;rounded=1;" parent="1" vertex="1">
                    <mxGeometry x="610" y="690" width="120" height="60" as="geometry"/>
                </mxCell>
                <mxCell id="MRK0rCwPvkTwzeyh7fdD-25" value="" style="edgeStyle=none;html=1;" parent="1" source="MRK0rCwPvkTwzeyh7fdD-24" target="MRK0rCwPvkTwzeyh7fdD-22" edge="1">
                    <mxGeometry relative="1" as="geometry"/>
                </mxCell>
                <mxCell id="MRK0rCwPvkTwzeyh7fdD-27" value="" style="edgeStyle=none;html=1;" parent="1" source="MRK0rCwPvkTwzeyh7fdD-24" target="MRK0rCwPvkTwzeyh7fdD-26" edge="1">
                    <mxGeometry relative="1" as="geometry"/>
                </mxCell>
                <mxCell id="MRK0rCwPvkTwzeyh7fdD-24" value="some one has to take the responsibility." style="text;html=1;align=center;verticalAlign=middle;whiteSpace=wrap;rounded=0;" parent="1" vertex="1">
                    <mxGeometry x="540" y="750" width="80" height="50" as="geometry"/>
                </mxCell>
                <mxCell id="MRK0rCwPvkTwzeyh7fdD-29" value="" style="edgeStyle=none;html=1;" parent="1" source="MRK0rCwPvkTwzeyh7fdD-26" target="MRK0rCwPvkTwzeyh7fdD-28" edge="1">
                    <mxGeometry relative="1" as="geometry"/>
                </mxCell>
                <mxCell id="MRK0rCwPvkTwzeyh7fdD-26" value="BrowserRouter as Router" style="whiteSpace=wrap;html=1;" parent="1" vertex="1">
                    <mxGeometry x="520" y="875" width="120" height="60" as="geometry"/>
                </mxCell>
                <mxCell id="MRK0rCwPvkTwzeyh7fdD-28" value="it has the integration with react lib ==&amp;gt; help u to manipute th VDOM tree ." style="whiteSpace=wrap;html=1;" parent="1" vertex="1">
                    <mxGeometry x="320" y="875" width="120" height="60" as="geometry"/>
                </mxCell>
            </root>
        </mxGraphModel>
    </diagram>
    <diagram id="15rViao5h1Nyz71mnGl8" name="Page-14">
        <mxGraphModel dx="642" dy="278" grid="1" gridSize="10" guides="1" tooltips="1" connect="1" arrows="1" fold="1" page="1" pageScale="1" pageWidth="850" pageHeight="1100" math="0" shadow="0">
            <root>
                <mxCell id="0"/>
                <mxCell id="1" parent="0"/>
                <mxCell id="X8vDRGFJFilbNk8pbMEG-1" value="1. props :&amp;nbsp;&lt;div&gt;2. RTK&lt;/div&gt;" style="rounded=1;whiteSpace=wrap;html=1;" parent="1" vertex="1">
                    <mxGeometry x="190" y="60" width="220" height="160" as="geometry"/>
                </mxCell>
                <mxCell id="X8vDRGFJFilbNk8pbMEG-4" value="" style="edgeStyle=none;html=1;" parent="1" source="X8vDRGFJFilbNk8pbMEG-2" target="X8vDRGFJFilbNk8pbMEG-3" edge="1">
                    <mxGeometry relative="1" as="geometry"/>
                </mxCell>
                <mxCell id="X8vDRGFJFilbNk8pbMEG-2" value="several files ==&amp;gt; are available on multiple machines ==&amp;gt; over the network ==&amp;gt; can we access those file ?" style="rounded=1;whiteSpace=wrap;html=1;" parent="1" vertex="1">
                    <mxGeometry x="260" y="330" width="260" height="60" as="geometry"/>
                </mxCell>
                <mxCell id="X8vDRGFJFilbNk8pbMEG-6" value="" style="edgeStyle=none;html=1;" parent="1" source="X8vDRGFJFilbNk8pbMEG-3" target="X8vDRGFJFilbNk8pbMEG-5" edge="1">
                    <mxGeometry relative="1" as="geometry"/>
                </mxCell>
                <mxCell id="X8vDRGFJFilbNk8pbMEG-3" value="FTP server" style="whiteSpace=wrap;html=1;rounded=1;" parent="1" vertex="1">
                    <mxGeometry x="330" y="470" width="120" height="60" as="geometry"/>
                </mxCell>
                <mxCell id="X8vDRGFJFilbNk8pbMEG-5" value="can I access the data across any corner from my. network." style="whiteSpace=wrap;html=1;rounded=1;" parent="1" vertex="1">
                    <mxGeometry x="130" y="470" width="120" height="60" as="geometry"/>
                </mxCell>
                <mxCell id="X8vDRGFJFilbNk8pbMEG-9" value="" style="edgeStyle=none;html=1;" parent="1" source="X8vDRGFJFilbNk8pbMEG-7" target="X8vDRGFJFilbNk8pbMEG-8" edge="1">
                    <mxGeometry relative="1" as="geometry"/>
                </mxCell>
                <mxCell id="X8vDRGFJFilbNk8pbMEG-7" value="centralized system where we will keep our data" style="text;html=1;align=center;verticalAlign=middle;whiteSpace=wrap;rounded=0;" parent="1" vertex="1">
                    <mxGeometry x="310" y="600" width="110" height="70" as="geometry"/>
                </mxCell>
                <mxCell id="X8vDRGFJFilbNk8pbMEG-8" value="can be accesible across the application." style="whiteSpace=wrap;html=1;" parent="1" vertex="1">
                    <mxGeometry x="277.5" y="755" width="175" height="60" as="geometry"/>
                </mxCell>
                <mxCell id="X8vDRGFJFilbNk8pbMEG-10" value="ReduxToolKit(RTK)" style="rounded=1;whiteSpace=wrap;html=1;" parent="1" vertex="1">
                    <mxGeometry x="140" y="670" width="120" height="60" as="geometry"/>
                </mxCell>
            </root>
        </mxGraphModel>
    </diagram>
    <diagram id="1Xl7Xx55M-x58RvnOK2S" name="Page-15">
        <mxGraphModel dx="1492" dy="278" grid="1" gridSize="10" guides="1" tooltips="1" connect="1" arrows="1" fold="1" page="1" pageScale="1" pageWidth="850" pageHeight="1100" math="0" shadow="0">
            <root>
                <mxCell id="0"/>
                <mxCell id="1" parent="0"/>
                <mxCell id="Alb8G33zUEXpTa8EWzOf-3" value="" style="edgeStyle=none;html=1;" parent="1" source="Alb8G33zUEXpTa8EWzOf-1" target="Alb8G33zUEXpTa8EWzOf-2" edge="1">
                    <mxGeometry relative="1" as="geometry"/>
                </mxCell>
                <mxCell id="Alb8G33zUEXpTa8EWzOf-1" value="store(centralized space to hold the data for ur application)" style="rounded=1;whiteSpace=wrap;html=1;" parent="1" vertex="1">
                    <mxGeometry x="310" y="40" width="190" height="70" as="geometry"/>
                </mxCell>
                <mxCell id="Alb8G33zUEXpTa8EWzOf-5" value="" style="edgeStyle=none;html=1;" parent="1" source="Alb8G33zUEXpTa8EWzOf-2" target="Alb8G33zUEXpTa8EWzOf-4" edge="1">
                    <mxGeometry relative="1" as="geometry"/>
                </mxCell>
                <mxCell id="Alb8G33zUEXpTa8EWzOf-2" value="components" style="whiteSpace=wrap;html=1;rounded=1;" parent="1" vertex="1">
                    <mxGeometry x="600" y="110" width="120" height="60" as="geometry"/>
                </mxCell>
                <mxCell id="Alb8G33zUEXpTa8EWzOf-7" value="" style="edgeStyle=none;html=1;" parent="1" source="Alb8G33zUEXpTa8EWzOf-4" target="Alb8G33zUEXpTa8EWzOf-6" edge="1">
                    <mxGeometry relative="1" as="geometry"/>
                </mxCell>
                <mxCell id="Alb8G33zUEXpTa8EWzOf-9" value="" style="edgeStyle=none;html=1;" parent="1" source="Alb8G33zUEXpTa8EWzOf-4" target="Alb8G33zUEXpTa8EWzOf-8" edge="1">
                    <mxGeometry relative="1" as="geometry"/>
                </mxCell>
                <mxCell id="Alb8G33zUEXpTa8EWzOf-11" value="" style="edgeStyle=none;html=1;" parent="1" source="Alb8G33zUEXpTa8EWzOf-4" target="Alb8G33zUEXpTa8EWzOf-10" edge="1">
                    <mxGeometry relative="1" as="geometry"/>
                </mxCell>
                <mxCell id="mSPh_dUg8nkktQqN7sIM-2" value="" style="edgeStyle=none;html=1;" parent="1" source="Alb8G33zUEXpTa8EWzOf-4" target="mSPh_dUg8nkktQqN7sIM-1" edge="1">
                    <mxGeometry relative="1" as="geometry"/>
                </mxCell>
                <mxCell id="Alb8G33zUEXpTa8EWzOf-4" value="actions" style="whiteSpace=wrap;html=1;rounded=1;" parent="1" vertex="1">
                    <mxGeometry x="360" y="260" width="120" height="60" as="geometry"/>
                </mxCell>
                <mxCell id="Alb8G33zUEXpTa8EWzOf-6" value="rest calls" style="whiteSpace=wrap;html=1;rounded=1;" parent="1" vertex="1">
                    <mxGeometry x="220" y="380" width="120" height="60" as="geometry"/>
                </mxCell>
                <mxCell id="Alb8G33zUEXpTa8EWzOf-8" value="Common Business Logical work" style="whiteSpace=wrap;html=1;rounded=1;" parent="1" vertex="1">
                    <mxGeometry x="570" y="380" width="120" height="60" as="geometry"/>
                </mxCell>
                <mxCell id="Alb8G33zUEXpTa8EWzOf-13" value="" style="edgeStyle=none;html=1;" parent="1" source="Alb8G33zUEXpTa8EWzOf-10" target="Alb8G33zUEXpTa8EWzOf-12" edge="1">
                    <mxGeometry relative="1" as="geometry"/>
                </mxCell>
                <mxCell id="Alb8G33zUEXpTa8EWzOf-10" value="middleware(which is handled internally by the RTK) no need to worrry." style="whiteSpace=wrap;html=1;rounded=1;" parent="1" vertex="1">
                    <mxGeometry x="160" y="260" width="120" height="60" as="geometry"/>
                </mxCell>
                <mxCell id="Alb8G33zUEXpTa8EWzOf-12" value="Reducers" style="whiteSpace=wrap;html=1;rounded=1;" parent="1" vertex="1">
                    <mxGeometry x="-40" y="110" width="120" height="60" as="geometry"/>
                </mxCell>
                <mxCell id="Alb8G33zUEXpTa8EWzOf-14" style="edgeStyle=none;html=1;entryX=-0.018;entryY=0.628;entryDx=0;entryDy=0;entryPerimeter=0;" parent="1" source="Alb8G33zUEXpTa8EWzOf-12" target="Alb8G33zUEXpTa8EWzOf-1" edge="1">
                    <mxGeometry relative="1" as="geometry"/>
                </mxCell>
                <mxCell id="Alb8G33zUEXpTa8EWzOf-15" value="data from store will be shared with components but as immutable" style="text;html=1;align=center;verticalAlign=middle;whiteSpace=wrap;rounded=0;" parent="1" vertex="1">
                    <mxGeometry x="520" y="50" width="200" height="40" as="geometry"/>
                </mxCell>
                <mxCell id="Alb8G33zUEXpTa8EWzOf-16" value="to manipulate the store" style="text;html=1;align=center;verticalAlign=middle;whiteSpace=wrap;rounded=0;" parent="1" vertex="1">
                    <mxGeometry x="90" y="40" width="60" height="30" as="geometry"/>
                </mxCell>
                <mxCell id="l0HMWCNfZswiMzKAxEHk-1" value="1. Promises : its a placeholder for a&amp;nbsp; future : success / failure&amp;nbsp;&lt;div&gt;pending&lt;/div&gt;&lt;div&gt;success&lt;/div&gt;&lt;div&gt;failrue&lt;/div&gt;&lt;div&gt;&lt;br&gt;&lt;/div&gt;" style="rounded=1;whiteSpace=wrap;html=1;" parent="1" vertex="1">
                    <mxGeometry x="31" y="499" width="380" height="100" as="geometry"/>
                </mxCell>
                <mxCell id="l0HMWCNfZswiMzKAxEHk-2" value="Slice : a slice is like a mini state module that manages one feature of your application.&lt;div&gt;&lt;br&gt;&lt;/div&gt;&lt;div&gt;data: state&lt;/div&gt;&lt;div&gt;action:&amp;nbsp; register, login ==&amp;gt; rest / CBL&amp;nbsp;&lt;/div&gt;&lt;div&gt;reducer: make the changes to the store==&amp;gt; thierspecific data part.&lt;/div&gt;&lt;div&gt;&lt;br&gt;&lt;/div&gt;" style="rounded=1;whiteSpace=wrap;html=1;" parent="1" vertex="1">
                    <mxGeometry x="70" y="650" width="380" height="180" as="geometry"/>
                </mxCell>
                <mxCell id="mSPh_dUg8nkktQqN7sIM-1" value="1. initial&lt;div&gt;or&amp;nbsp;&lt;/div&gt;&lt;div&gt;success&amp;nbsp;&lt;/div&gt;&lt;div&gt;failure.&lt;/div&gt;" style="whiteSpace=wrap;html=1;rounded=1;" parent="1" vertex="1">
                    <mxGeometry x="350" y="410" width="180" height="80" as="geometry"/>
                </mxCell>
            </root>
        </mxGraphModel>
    </diagram>
    <diagram id="RV_sX-n747K04fa8lVzc" name="Page-16">
        <mxGraphModel dx="1485" dy="399" grid="1" gridSize="10" guides="1" tooltips="1" connect="1" arrows="1" fold="1" page="1" pageScale="1" pageWidth="850" pageHeight="1100" math="0" shadow="0">
            <root>
                <mxCell id="0"/>
                <mxCell id="1" parent="0"/>
                <mxCell id="DjExfSj6GsEqeSgSdrwc-3" value="" style="edgeStyle=none;html=1;" edge="1" parent="1" source="DjExfSj6GsEqeSgSdrwc-1" target="DjExfSj6GsEqeSgSdrwc-2">
                    <mxGeometry relative="1" as="geometry"/>
                </mxCell>
                <mxCell id="DjExfSj6GsEqeSgSdrwc-1" value="register /login" style="rounded=1;whiteSpace=wrap;html=1;" vertex="1" parent="1">
                    <mxGeometry x="170" y="60" width="120" height="60" as="geometry"/>
                </mxCell>
                <mxCell id="DjExfSj6GsEqeSgSdrwc-2" value="dashboard ==&amp;gt; user details , welcome userName some info about hte user we want to use it ." style="whiteSpace=wrap;html=1;rounded=1;" vertex="1" parent="1">
                    <mxGeometry x="150" y="200" width="160" height="80" as="geometry"/>
                </mxCell>
                <mxCell id="DjExfSj6GsEqeSgSdrwc-6" value="" style="edgeStyle=none;html=1;" edge="1" parent="1" source="DjExfSj6GsEqeSgSdrwc-4" target="DjExfSj6GsEqeSgSdrwc-5">
                    <mxGeometry relative="1" as="geometry"/>
                </mxCell>
                <mxCell id="DjExfSj6GsEqeSgSdrwc-8" value="" style="edgeStyle=none;html=1;" edge="1" parent="1" source="DjExfSj6GsEqeSgSdrwc-4" target="DjExfSj6GsEqeSgSdrwc-1">
                    <mxGeometry relative="1" as="geometry"/>
                </mxCell>
                <mxCell id="DjExfSj6GsEqeSgSdrwc-10" value="" style="edgeStyle=none;html=1;" edge="1" parent="1" source="DjExfSj6GsEqeSgSdrwc-4" target="DjExfSj6GsEqeSgSdrwc-9">
                    <mxGeometry relative="1" as="geometry"/>
                </mxCell>
                <mxCell id="DjExfSj6GsEqeSgSdrwc-4" value="to retrieve the user details." style="text;html=1;align=center;verticalAlign=middle;whiteSpace=wrap;rounded=0;" vertex="1" parent="1">
                    <mxGeometry x="395" y="250" width="70" height="40" as="geometry"/>
                </mxCell>
                <mxCell id="DjExfSj6GsEqeSgSdrwc-7" style="edgeStyle=none;html=1;entryX=1;entryY=0.5;entryDx=0;entryDy=0;" edge="1" parent="1" source="DjExfSj6GsEqeSgSdrwc-5" target="DjExfSj6GsEqeSgSdrwc-2">
                    <mxGeometry relative="1" as="geometry"/>
                </mxCell>
                <mxCell id="DjExfSj6GsEqeSgSdrwc-5" value="store." style="whiteSpace=wrap;html=1;" vertex="1" parent="1">
                    <mxGeometry x="370" y="135" width="120" height="60" as="geometry"/>
                </mxCell>
                <mxCell id="DjExfSj6GsEqeSgSdrwc-12" value="" style="edgeStyle=none;html=1;" edge="1" parent="1" source="DjExfSj6GsEqeSgSdrwc-9" target="DjExfSj6GsEqeSgSdrwc-11">
                    <mxGeometry relative="1" as="geometry"/>
                </mxCell>
                <mxCell id="DjExfSj6GsEqeSgSdrwc-9" value="rest call :&amp;nbsp;&lt;div&gt;endpoint : /api/auth&amp;nbsp;&lt;/div&gt;&lt;div&gt;method : get&lt;/div&gt;&lt;div&gt;token in x-auth-token(custom header)&lt;/div&gt;" style="whiteSpace=wrap;html=1;" vertex="1" parent="1">
                    <mxGeometry x="350" y="360" width="160" height="110" as="geometry"/>
                </mxCell>
                <mxCell id="DjExfSj6GsEqeSgSdrwc-14" value="" style="edgeStyle=none;html=1;" edge="1" parent="1" source="DjExfSj6GsEqeSgSdrwc-11" target="DjExfSj6GsEqeSgSdrwc-13">
                    <mxGeometry relative="1" as="geometry"/>
                </mxCell>
                <mxCell id="DjExfSj6GsEqeSgSdrwc-18" value="" style="edgeStyle=none;html=1;" edge="1" parent="1" source="DjExfSj6GsEqeSgSdrwc-11" target="DjExfSj6GsEqeSgSdrwc-17">
                    <mxGeometry relative="1" as="geometry"/>
                </mxCell>
                <mxCell id="DjExfSj6GsEqeSgSdrwc-11" value="service :&lt;div&gt;loadUser&lt;/div&gt;" style="whiteSpace=wrap;html=1;" vertex="1" parent="1">
                    <mxGeometry x="130" y="385" width="120" height="60" as="geometry"/>
                </mxCell>
                <mxCell id="DjExfSj6GsEqeSgSdrwc-16" value="" style="edgeStyle=none;html=1;" edge="1" parent="1" source="DjExfSj6GsEqeSgSdrwc-13" target="DjExfSj6GsEqeSgSdrwc-15">
                    <mxGeometry relative="1" as="geometry"/>
                </mxCell>
                <mxCell id="DjExfSj6GsEqeSgSdrwc-13" value="it has a prerequisite&lt;div&gt;it requires the token&lt;/div&gt;" style="whiteSpace=wrap;html=1;" vertex="1" parent="1">
                    <mxGeometry x="-70" y="385" width="120" height="60" as="geometry"/>
                </mxCell>
                <mxCell id="DjExfSj6GsEqeSgSdrwc-15" value="token must be added by the axios." style="whiteSpace=wrap;html=1;" vertex="1" parent="1">
                    <mxGeometry x="-70" y="525" width="120" height="60" as="geometry"/>
                </mxCell>
                <mxCell id="DjExfSj6GsEqeSgSdrwc-20" value="" style="edgeStyle=none;html=1;" edge="1" parent="1" source="DjExfSj6GsEqeSgSdrwc-17" target="DjExfSj6GsEqeSgSdrwc-19">
                    <mxGeometry relative="1" as="geometry"/>
                </mxCell>
                <mxCell id="DjExfSj6GsEqeSgSdrwc-17" value="action : loadUserAction" style="whiteSpace=wrap;html=1;" vertex="1" parent="1">
                    <mxGeometry x="130" y="525" width="120" height="60" as="geometry"/>
                </mxCell>
                <mxCell id="DjExfSj6GsEqeSgSdrwc-19" value="it must retrieve user details and give to state.user" style="whiteSpace=wrap;html=1;" vertex="1" parent="1">
                    <mxGeometry x="130" y="665" width="120" height="60" as="geometry"/>
                </mxCell>
                <mxCell id="DjExfSj6GsEqeSgSdrwc-22" value="" style="rounded=1;whiteSpace=wrap;html=1;" vertex="1" parent="1">
                    <mxGeometry x="50" y="770" width="250" height="220" as="geometry"/>
                </mxCell>
                <mxCell id="DjExfSj6GsEqeSgSdrwc-25" value="" style="edgeStyle=none;html=1;" edge="1" parent="1" source="DjExfSj6GsEqeSgSdrwc-23" target="DjExfSj6GsEqeSgSdrwc-24">
                    <mxGeometry relative="1" as="geometry"/>
                </mxCell>
                <mxCell id="DjExfSj6GsEqeSgSdrwc-23" value="middlewareListner" style="ellipse;whiteSpace=wrap;html=1;" vertex="1" parent="1">
                    <mxGeometry x="70" y="790" width="120" height="80" as="geometry"/>
                </mxCell>
                <mxCell id="DjExfSj6GsEqeSgSdrwc-24" value="" style="whiteSpace=wrap;html=1;" vertex="1" parent="1">
                    <mxGeometry x="115" y="900" width="120" height="60" as="geometry"/>
                </mxCell>
            </root>
        </mxGraphModel>
    </diagram>
</mxfile>